<?xml version="1.0" encoding="UTF-8" standalone="no"?>
<svg
   xmlns:dc="http://purl.org/dc/elements/1.1/"
   xmlns:cc="http://creativecommons.org/ns#"
   xmlns:rdf="http://www.w3.org/1999/02/22-rdf-syntax-ns#"
   xmlns:svg="http://www.w3.org/2000/svg"
   xmlns="http://www.w3.org/2000/svg"
   xmlns:sodipodi="http://sodipodi.sourceforge.net/DTD/sodipodi-0.dtd"
   xmlns:inkscape="http://www.inkscape.org/namespaces/inkscape"
   width="210mm"
   height="210mm"
   viewBox="0 0 210 210"
   version="1.1"
   id="svg707"
   inkscape:version="0.92+devel (cebbbba6da, 2018-12-20)"
   sodipodi:docname="male_pattern_baldness.svg">
  <style
     id="style261">
     .hair_color {
         fill: blue !important;
     }
     .hair_color_outline {
         stroke: black !important;
     }
     </style>
  <defs
     id="defs701" />
  <sodipodi:namedview
     id="base"
     pagecolor="#ffffff"
     bordercolor="#666666"
     borderopacity="1.0"
     inkscape:pageopacity="0.0"
     inkscape:pageshadow="2"
     inkscape:zoom="1.1346845"
     inkscape:cx="385.80669"
     inkscape:cy="240.13634"
     inkscape:document-units="mm"
     inkscape:current-layer="contents"
     inkscape:document-rotation="0"
     showgrid="false"
     inkscape:window-width="1366"
     inkscape:window-height="738"
     inkscape:window-x="0"
     inkscape:window-y="0"
     inkscape:window-maximized="1" />
  <metadata
     id="metadata704">
    <rdf:RDF>
      <cc:Work
         rdf:about="">
        <dc:format>image/svg+xml</dc:format>
        <dc:type
           rdf:resource="http://purl.org/dc/dcmitype/StillImage" />
        <dc:title></dc:title>
      </cc:Work>
    </rdf:RDF>
  </metadata>
  <g
     inkscape:label="guide"
     inkscape:groupmode="layer"
     id="guide"
     style="display:inline;opacity:0.509806"
     sodipodi:insensitive="true">
    <rect
       style="fill:#999999;fill-rule:evenodd;stroke-width:0.277397"
       id="rect259"
       width="133.21216"
       height="72.37822"
       x="39.008324"
       y="22.751354" />
  </g>
  <g
     inkscape:groupmode="layer"
     id="contents"
     inkscape:label="contents"
     style="display:inline">
    <path
       style="display:inline;opacity:1;stroke-width:1"
       sodipodi:nodetypes="ccccc"
       d="m 146.96318,30.522812 -0.47161,32.215491 c -2.35041,-11.826171 -53.418559,16.205623 -70.155469,4.048758 -2.88854,-5.051562 -9.079384,-32.564894 -6.824694,-37.026557 23.418537,4.011656 44.490623,0.501341 77.451773,0.762308 z"
       class="hair_color"
       id="path240-2"
       inkscape:connector-curvature="0" />
  </g>
  <g
     sodipodi:insensitive="true"
     inkscape:groupmode="layer"
     id="layer7"
     inkscape:label="hints"
     style="display:inline;opacity:1">
    <ellipse
       style="fill:#e6e6e6;stroke-width:0.264583"
       id="path10811"
       cx="106.90763"
       cy="105.91379"
       rx="64.360046"
       ry="79.833107" />
    <ellipse
       style="fill:#808080;stroke-width:0.264583"
       id="path10813"
       cx="70.529694"
       cy="96.871117"
       rx="12.115626"
       ry="7.4878688" />
    <ellipse
       style="display:inline;fill:#808080;stroke-width:0.264583"
       id="path10813-1"
       cx="145.746"
       cy="95.969009"
       rx="12.115626"
       ry="7.4878693" />
    <path
       class="hair_color hair_color_outline"
       style="display:inline;stroke-width:0.965;stroke-miterlimit:4;stroke-dasharray:none"
       d="m 143.39306,41.251385 c 9.43822,11.239242 24.13351,31.658714 27.60378,51.963722 4.29678,-14.908698 -4.64327,-48.67202 -17.31583,-61.172359 -11.9739,-9.395763 -14.33288,6.848235 -10.28795,9.208637 z"
       id="path10860"
       inkscape:connector-curvature="0"
       sodipodi:nodetypes="cccc" />
    <path
       inkscape:connector-curvature="0"
       id="path240"
       class="hair_color"
       d="m 143.3494,36.770767 c 14.19136,10.173142 24.74544,25.010003 27.8742,51.949737 0.39256,1.844487 -0.0508,3.668451 -0.0799,5.502583 -4.28489,-1.952806 -5.53853,-4.518726 -6.27513,-8.224919 -2.35041,-11.826172 -2.60139,-20.700347 -19.3383,-32.857211 -2.88854,-5.051562 -5.5973,-11.819698 -3.34261,-16.281361 z"
       sodipodi:nodetypes="ccccccc"
       style="display:inline" />
    <path
       sodipodi:nodetypes="cccc"
       inkscape:connector-curvature="0"
       id="path10860-8"
       d="M 39.316253,94.027125 C 47.383024,61.716991 52.529767,49.593072 71.641198,39.93413 80.508314,32.620291 68.66198,24.311754 59.653381,30.826223 41.684663,43.367106 35.995457,69.776031 39.316253,94.027125 Z"
       style="display:inline;stroke-width:0.964999;stroke-miterlimit:4;stroke-dasharray:none"
       class="hair_color hair_color_outline" />
    <path
       style="display:inline;stroke-width:1"
       sodipodi:nodetypes="ccccccc"
       d="M 39.197978,95.109818 C 39.093152,92.787372 38.115028,89.272663 38.894341,88.15728 39.618844,64.314945 55.767898,44.181206 73.58049,33.019136 c 1.824582,7.045074 0.571626,8.910917 -0.74667,13.997101 -1.819093,3.70031 -21.255957,24.079484 -22.861667,41.082766 -3.696893,5.434277 -7.307135,8.276023 -10.774125,7.010815 z"
       class="hair_color"
       id="path240-8"
       inkscape:connector-curvature="0" />
  </g>
</svg>
