<?xml version="1.0" encoding="UTF-8" standalone="no"?>
<svg
   xmlns:dc="http://purl.org/dc/elements/1.1/"
   xmlns:cc="http://creativecommons.org/ns#"
   xmlns:rdf="http://www.w3.org/1999/02/22-rdf-syntax-ns#"
   xmlns:svg="http://www.w3.org/2000/svg"
   xmlns="http://www.w3.org/2000/svg"
   xmlns:sodipodi="http://sodipodi.sourceforge.net/DTD/sodipodi-0.dtd"
   xmlns:inkscape="http://www.inkscape.org/namespaces/inkscape"
   sodipodi:docname="3.svg"
   inkscape:version="0.92+devel (cebbbba6da, 2018-12-20)"
   id="svg707"
   version="1.1"
   viewBox="0 0 210 210"
   height="210mm"
   width="210mm">
  <defs
     id="defs701" />
  <sodipodi:namedview
     inkscape:window-maximized="1"
     inkscape:window-y="0"
     inkscape:window-x="0"
     inkscape:window-height="738"
     inkscape:window-width="1366"
     showgrid="false"
     inkscape:document-rotation="0"
     inkscape:current-layer="option_stubble"
     inkscape:document-units="mm"
     inkscape:cy="577.32091"
     inkscape:cx="379.41866"
     inkscape:zoom="0.66263694"
     inkscape:pageshadow="2"
     inkscape:pageopacity="0.0"
     borderopacity="1.0"
     bordercolor="#666666"
     pagecolor="#ffffff"
     id="base" />
  <metadata
     id="metadata704">
    <rdf:RDF>
      <cc:Work
         rdf:about="">
        <dc:format>image/svg+xml</dc:format>
        <dc:type
           rdf:resource="http://purl.org/dc/dcmitype/StillImage" />
        <dc:title />
      </cc:Work>
    </rdf:RDF>
  </metadata>
  <style
     id="style4623">
  .skin_color { fill: #b3b3b3 !important; }
  .skin_color_outline { stroke: black !important; }
     .hair_color {
         fill: blue !important;
     }
     .hair_color_outline {
         stroke: black !important;
     }
  </style>
  <g
     sodipodi:insensitive="true"
     style="display:inline"
     inkscape:label="hints"
     id="layer7"
     inkscape:groupmode="layer">
    <path
       sodipodi:nodetypes="csssssc"
       inkscape:connector-curvature="0"
       id="path10811"
       d="m 171.26768,105.91379 c 0,9.05481 -1.22422,17.84248 -3.47772,26.09084 -8.71944,31.91538 -28.8182,15.92511 -57.06344,15.92511 -28.202307,0 -56.065112,16.06269 -64.708041,-15.77963 -2.250276,-8.29048 -3.470893,-17.12826 -3.470894,-26.23632 -3e-6,-44.090608 28.814973,-79.833108 64.360045,-79.833109 35.54507,-3e-6 64.36005,35.742499 64.36005,79.833109"
       style="fill:#808000;stroke-width:0.264583" />
    <ellipse
       ry="7.4878688"
       rx="12.115626"
       cy="96.871117"
       cx="70.529694"
       id="path10813"
       style="stroke-width:0.264583" />
    <ellipse
       ry="7.4878693"
       rx="12.115626"
       cy="95.969009"
       cx="145.746"
       id="path10813-1"
       style="display:inline;stroke-width:0.264583" />
  </g>
  <g
     sodipodi:insensitive="true"
     style="display:inline;opacity:0.509806"
     id="guide"
     inkscape:groupmode="layer"
     inkscape:label="guide">
    <rect
       y="131.84291"
       x="45.756344"
       height="53.480701"
       width="121.96474"
       id="rect259"
       style="fill-rule:evenodd;stroke-width:0.228161" />
  </g>
  <g
     style="display:inline;opacity:0.998"
     inkscape:label="contents"
     id="contents"
     inkscape:groupmode="layer">
    <path
       class="skin_color skin_color_outline"
       sodipodi:nodetypes="cccc"
       inkscape:connector-curvature="0"
       id="path243"
       d="m 45.531527,130.96172 c -3.155275,37.30978 6.468045,58.13771 36.391428,52.42335 14.376849,11.06115 22.843475,16.03776 44.697135,-0.59848 16.64783,4.73433 41.65672,3.05947 40.94751,-51.42473" />
    <path
       sodipodi:nodetypes="ccccc"
       style="display:inline;vector-effect:none;fill:#00000f;fill-opacity:0.320054;stroke-width:0.264583"
       d="m 45.532991,130.9598 122.037079,0.40134 1.38858,62.31131 -123.425659,-1.03202 z"
       id="guide_beard"
       inkscape:connector-curvature="0"
       inkscape:label="#rect417" />
    <g
       inkscape:label="option_stubble"
       id="option_stubble"
       inkscape:groupmode="layer"
       style="opacity:0.286753">
      <path
         class="hair_color"
         inkscape:connector-curvature="0"
         id="path1310"
         d="m 46.392319,132.56842 c -2.008836,15.25332 -6.818516,54.62223 35.12818,51.01487 8.917317,9.88289 31.948371,14.39964 44.116681,-0.90194 5.25004,2.12028 25.2314,3.76185 33.73866,-9.04246 4.26542,-12.85164 9.76875,-24.8728 7.52741,-41.38765 -6.48664,4.49467 -5.07686,0.0877 -19.48961,33.10122 -7.18562,3.7304 -14.62248,5.34898 -22.39385,4.15587 -9.25609,-9.299 -31.884061,-10.76605 -42.478659,-0.31023 -7.414256,6.02289 -13.638687,0.11308 -19.453573,-1.71695 -10.13334,-12.32195 -7.453307,-31.07622 -16.695239,-34.91226 z"
         sodipodi:nodetypes="ccccccccccc" />
    </g>
  </g>
</svg>
