<?xml version="1.0" encoding="UTF-8" standalone="no"?>
<svg
   xmlns:dc="http://purl.org/dc/elements/1.1/"
   xmlns:cc="http://creativecommons.org/ns#"
   xmlns:rdf="http://www.w3.org/1999/02/22-rdf-syntax-ns#"
   xmlns:svg="http://www.w3.org/2000/svg"
   xmlns="http://www.w3.org/2000/svg"
   xmlns:sodipodi="http://sodipodi.sourceforge.net/DTD/sodipodi-0.dtd"
   xmlns:inkscape="http://www.inkscape.org/namespaces/inkscape"
   width="210mm"
   height="210mm"
   viewBox="0 0 210 210"
   version="1.1"
   id="svg707"
   inkscape:version="0.92+devel (cebbbba6da, 2018-12-20)"
   sodipodi:docname="3.svg">
  <defs
     id="defs701" />
  <sodipodi:namedview
     id="base"
     pagecolor="#ffffff"
     bordercolor="#666666"
     borderopacity="1.0"
     inkscape:pageopacity="0.0"
     inkscape:pageshadow="2"
     inkscape:zoom="0.66263694"
     inkscape:cx="379.41866"
     inkscape:cy="577.32091"
     inkscape:document-units="mm"
     inkscape:current-layer="option_stubble"
     inkscape:document-rotation="0"
     showgrid="false"
     inkscape:window-width="1366"
     inkscape:window-height="738"
     inkscape:window-x="0"
     inkscape:window-y="0"
     inkscape:window-maximized="1" />
  <metadata
     id="metadata704">
    <rdf:RDF>
      <cc:Work
         rdf:about="">
        <dc:format>image/svg+xml</dc:format>
        <dc:type
           rdf:resource="http://purl.org/dc/dcmitype/StillImage" />
        <dc:title />
      </cc:Work>
    </rdf:RDF>
  </metadata>
  <style
     id="style4623">
  .skin_color { fill: #b3b3b3 !important; }
  .skin_color_outline { stroke: black !important; }
     .hair_color {
         fill: blue !important;
     }
     .hair_color_outline {
         stroke: black !important;
     }
  </style>
  <g
     inkscape:groupmode="layer"
     id="layer7"
     inkscape:label="hints"
     style="display:inline"
     sodipodi:insensitive="true">
    <path
       style="fill:#808000;stroke-width:0.264583"
       d="m 171.26768,105.91379 c 0,9.05481 -1.22422,17.84248 -3.47772,26.09084 -8.71944,31.91538 -28.8182,15.92511 -57.06344,15.92511 -28.202307,0 -56.065112,16.06269 -64.708041,-15.77963 -2.250276,-8.29048 -3.470893,-17.12826 -3.470894,-26.23632 -3e-6,-44.090608 28.814973,-79.833108 64.360045,-79.833109 35.54507,-3e-6 64.36005,35.742499 64.36005,79.833109"
       id="path10811"
       inkscape:connector-curvature="0"
       sodipodi:nodetypes="csssssc" />
    <ellipse
       style="stroke-width:0.264583"
       id="path10813"
       cx="70.529694"
       cy="96.871117"
       rx="12.115626"
       ry="7.4878688" />
    <ellipse
       style="display:inline;stroke-width:0.264583"
       id="path10813-1"
       cx="145.746"
       cy="95.969009"
       rx="12.115626"
       ry="7.4878693" />
  </g>
  <g
     inkscape:label="guide"
     inkscape:groupmode="layer"
     id="guide"
     style="display:inline;opacity:0.509806"
     sodipodi:insensitive="true">
    <rect
       style="fill-rule:evenodd;stroke-width:0.228161"
       id="rect259"
       width="121.96474"
       height="53.480701"
       x="45.756344"
       y="131.84291" />
  </g>
  <g
     inkscape:groupmode="layer"
     id="contents"
     inkscape:label="contents"
     style="display:inline;opacity:0.998">
    <path
       d="m 45.531527,130.96172 c 2.22704,28.72331 16.115214,46.08022 38.528197,52.34729 14.376849,11.06115 22.843476,16.03776 44.697136,-0.59848 8.71293,-0.0989 32.15133,-9.05132 38.81074,-51.34867"
       id="path243"
       inkscape:connector-curvature="0"
       sodipodi:nodetypes="cccc"
       class="skin_color skin_color_outline" />
    <path
       inkscape:label="#rect417"
       inkscape:connector-curvature="0"
       id="guide_beard"
       d="m 45.532991,130.9598 122.037079,0.40134 1.38858,62.31131 -123.425659,-1.03202 z"
       style="display:inline;vector-effect:none;fill:#00000f;fill-opacity:0.320054;stroke-width:0.264583"
       sodipodi:nodetypes="ccccc" />
    <g
       style="opacity:0.286753"
       inkscape:groupmode="layer"
       id="option_stubble"
       inkscape:label="option_stubble">
      <path
         sodipodi:nodetypes="ccccccccccc"
         d="m 46.392319,132.56842 c -0.52745,12.53772 3.859572,38.42441 36.97021,51.01487 8.917317,9.88289 31.948371,14.39964 44.116681,-0.90194 7.76864,-2.1381 21.76465,-7.20151 27.77046,-15.27926 4.26542,-12.85164 13.89492,-18.636 11.65358,-35.15085 -6.48664,4.49467 -10.08722,-7.36602 -24.49997,25.6475 -9.24186,13.35266 -8.52835,16.35098 -15.54146,11.60959 -9.25609,-9.299 -31.884061,-10.76605 -42.478659,-0.31023 -5.360241,9.67445 -8.419621,-3.44981 -15.695803,-7.87769 -10.13334,-12.32195 -13.053107,-24.91548 -22.295039,-28.75152 z"
         id="path1310"
         inkscape:connector-curvature="0"
         class="hair_color" />
    </g>
  </g>
</svg>
