<?xml version="1.0" encoding="UTF-8" standalone="no"?>
<svg
   xmlns:dc="http://purl.org/dc/elements/1.1/"
   xmlns:cc="http://creativecommons.org/ns#"
   xmlns:rdf="http://www.w3.org/1999/02/22-rdf-syntax-ns#"
   xmlns:svg="http://www.w3.org/2000/svg"
   xmlns="http://www.w3.org/2000/svg"
   xmlns:sodipodi="http://sodipodi.sourceforge.net/DTD/sodipodi-0.dtd"
   xmlns:inkscape="http://www.inkscape.org/namespaces/inkscape"
   width="210mm"
   height="210mm"
   viewBox="0 0 210 210"
   version="1.1"
   id="svg707"
   inkscape:version="0.92+devel (cebbbba6da, 2018-12-20)"
   sodipodi:docname="masculine_1.svg">
  <defs
     id="defs701" />
  <sodipodi:namedview
     id="base"
     pagecolor="#ffffff"
     bordercolor="#666666"
     borderopacity="1.0"
     inkscape:pageopacity="0.0"
     inkscape:pageshadow="2"
     inkscape:zoom="1.5552131"
     inkscape:cx="397.4107"
     inkscape:cy="606.0259"
     inkscape:document-units="mm"
     inkscape:current-layer="layer1"
     inkscape:document-rotation="0"
     showgrid="false"
     inkscape:window-width="1366"
     inkscape:window-height="738"
     inkscape:window-x="0"
     inkscape:window-y="0"
     inkscape:window-maximized="1" />
  <metadata
     id="metadata704">
    <rdf:RDF>
      <cc:Work
         rdf:about="">
        <dc:format>image/svg+xml</dc:format>
        <dc:type
           rdf:resource="http://purl.org/dc/dcmitype/StillImage" />
        <dc:title />
      </cc:Work>
    </rdf:RDF>
  </metadata>
  <style
     id="style4623">
  .skin_color { fill: #b3b3b3 !important; }
  .skin_color_outline { stroke: black !important; }
     .hair_color {
         fill: blue !important;
     }
     .hair_color_outline {
         stroke: black !important;
     }
  </style>
  <g
     inkscape:groupmode="layer"
     id="layer7"
     inkscape:label="hints"
     style="display:inline"
     sodipodi:insensitive="true">
    <path
       style="fill:#808000;stroke-width:0.264583"
       d="m 171.26768,105.91379 c 0,9.05481 -1.22422,17.84248 -3.47772,26.09084 -8.71944,31.91538 -28.8182,15.92511 -57.06344,15.92511 -28.202307,0 -56.065112,16.06269 -64.708041,-15.77963 -2.250276,-8.29048 -3.470893,-17.12826 -3.470894,-26.23632 -3e-6,-44.090608 28.814973,-79.833108 64.360045,-79.833109 35.54507,-3e-6 64.36005,35.742499 64.36005,79.833109"
       id="path10811"
       inkscape:connector-curvature="0"
       sodipodi:nodetypes="csssssc" />
    <ellipse
       style="stroke-width:0.264583"
       id="path10813"
       cx="70.529694"
       cy="96.871117"
       rx="12.115626"
       ry="7.4878688" />
    <ellipse
       style="display:inline;stroke-width:0.264583"
       id="path10813-1"
       cx="145.746"
       cy="95.969009"
       rx="12.115626"
       ry="7.4878693" />
  </g>
  <g
     inkscape:label="guide"
     inkscape:groupmode="layer"
     id="guide"
     style="display:inline;opacity:0.509806"
     sodipodi:insensitive="true">
    <rect
       style="fill-rule:evenodd;stroke-width:0.228161"
       id="rect259"
       width="121.96474"
       height="53.480701"
       x="45.756344"
       y="131.84291" />
  </g>
  <g
     style="display:inline"
     inkscape:label="contents"
     id="contents"
     inkscape:groupmode="layer">
    <path
       class="skin_color skin_color_outline"
       sodipodi:nodetypes="ccsscc"
       inkscape:connector-curvature="0"
       id="path250"
       d="m 45.755404,131.8433 c 6.054843,14.25039 6.646765,28.78859 9.66472,43.18238 -0.365489,6.21024 11.759444,5.31237 28.491653,9.18878 11.949917,2.76848 30.792883,4.31898 45.954753,-0.12634 13.4796,-3.95209 26.69427,-1.62813 28.81671,-9.19072 2.94358,-14.32511 2.38158,-28.0865 8.65057,-43.06667" />
    <path
       inkscape:label="#rect417"
       inkscape:connector-curvature="0"
       id="guide_beard"
       d="m 44.909127,131.54099 122.425873,0.28667 -3.66583,54.39916 -110.206449,2.63737 z"
       style="display:inline;vector-effect:none;fill:#00000f;fill-opacity:0.320054;stroke-width:0.264583"
       sodipodi:nodetypes="ccccc" />
    <g
       style="opacity:0.28675283"
       inkscape:groupmode="layer"
       id="option_stubble"
       inkscape:label="option_stubble">
      <path
         sodipodi:nodetypes="ccccccccccc"
         d="m 46.392319,132.56842 c 5.078092,14.48309 6.444639,28.96618 9.177287,43.44927 -4.647109,3.25416 19.89919,6.61359 37.82691,9.94915 12.281004,2.22697 24.562014,0.002 36.843024,-1.96149 11.30824,-2.41861 26.75284,-2.1502 29.1363,-10.36646 1.85824,-13.79588 2.8372,-27.59177 7.52741,-41.38765 -6.48664,4.49467 -5.07686,0.0877 -19.48961,33.10122 -7.18562,3.7304 -14.62248,5.34898 -22.39385,4.15587 -9.25609,-9.299 -19.06346,-10.46182 -29.658058,-0.006 -7.414256,6.02289 -12.754508,1.86243 -18.569394,0.0324 -10.13334,-12.32195 -21.158087,-33.1298 -30.400019,-36.96584 z"
         id="path1310"
         inkscape:connector-curvature="0"
         class="hair_color" />
    </g>
  </g>
</svg>
