<?xml version="1.0" encoding="UTF-8" standalone="no"?>
<svg
   xmlns:dc="http://purl.org/dc/elements/1.1/"
   xmlns:cc="http://creativecommons.org/ns#"
   xmlns:rdf="http://www.w3.org/1999/02/22-rdf-syntax-ns#"
   xmlns:svg="http://www.w3.org/2000/svg"
   xmlns="http://www.w3.org/2000/svg"
   xmlns:sodipodi="http://sodipodi.sourceforge.net/DTD/sodipodi-0.dtd"
   xmlns:inkscape="http://www.inkscape.org/namespaces/inkscape"
   sodipodi:docname="1.svg"
   inkscape:version="0.92+devel (cebbbba6da, 2018-12-20)"
   id="svg707"
   version="1.1"
   viewBox="0 0 210 210"
   height="210mm"
   width="210mm">
  <style
     id="style261">
     .hair_color {
         fill: blue !important;
     }
     .hair_color_outline {
         stroke: black !important;
     }
     </style>
  <defs
     id="defs701" />
  <sodipodi:namedview
     inkscape:window-maximized="1"
     inkscape:window-y="0"
     inkscape:window-x="0"
     inkscape:window-height="738"
     inkscape:window-width="1366"
     showgrid="false"
     inkscape:document-rotation="0"
     inkscape:current-layer="contents"
     inkscape:document-units="mm"
     inkscape:cy="163.56836"
     inkscape:cx="311.8634"
     inkscape:zoom="8.6188429"
     inkscape:pageshadow="2"
     inkscape:pageopacity="0.0"
     borderopacity="1.0"
     bordercolor="#666666"
     pagecolor="#ffffff"
     id="base" />
  <metadata
     id="metadata704">
    <rdf:RDF>
      <cc:Work
         rdf:about="">
        <dc:format>image/svg+xml</dc:format>
        <dc:type
           rdf:resource="http://purl.org/dc/dcmitype/StillImage" />
        <dc:title />
      </cc:Work>
    </rdf:RDF>
  </metadata>
  <g
     sodipodi:insensitive="true"
     style="display:inline;opacity:0.996614"
     inkscape:label="hints"
     id="layer7"
     inkscape:groupmode="layer">
    <ellipse
       ry="79.833107"
       rx="64.360046"
       cy="105.91379"
       cx="106.90763"
       id="path10811"
       style="fill:#e6e6e6;stroke-width:0.264583" />
    <ellipse
       ry="7.4878688"
       rx="12.115626"
       cy="96.871117"
       cx="70.529694"
       id="path10813"
       style="fill:#808080;stroke-width:0.264583" />
    <ellipse
       ry="7.4878693"
       rx="12.115626"
       cy="95.969009"
       cx="145.746"
       id="path10813-1"
       style="display:inline;fill:#808080;stroke-width:0.264583" />
  </g>
  <g
     style="display:inline;opacity:0.509806"
     id="guide"
     inkscape:groupmode="layer"
     inkscape:label="guide">
    <path
       style="fill:#999999;fill-rule:evenodd;stroke-width:0.277397"
       d="M 73.035164,6.1001544 H 93.284269 V 58.010574 H 73.035164 Z"
       id="rect259"
       inkscape:connector-curvature="0" />
  </g>
  <g
     style="display:inline"
     inkscape:label="contents"
     id="contents"
     inkscape:groupmode="layer">
    <path
       sodipodi:nodetypes="ccsccscccssc"
       inkscape:connector-curvature="0"
       id="path296"
       d="m 84.321128,6.461621 c -0.149993,0.00688 -0.294455,0.034156 -0.431499,0.083199 -2.049086,0.733298 -5.796208,4.45788 -4.982641,7.561296 0.441436,1.683895 -0.160763,3.253659 -1.290878,4.99246 -1.331627,2.048853 -1.946918,7.679633 -1.945616,12.329479 7.93e-4,2.805871 -0.200465,5.568545 0.436665,8.01915 0.860343,3.309157 0.607521,4.219088 0.995805,6.007386 2.214795,-1.18052 3.309544,-1.312284 6.788732,-1.30179 3.359336,0.06765 4.74377,0.668845 6.790801,1.294037 0.908806,-3.993255 2.608738,-8.954772 1.426786,-14.018783 -0.716123,-3.068193 -0.436618,-4.635728 -0.28267,-6.177917 1.04929,-10.51145 -4.455641,-18.928421 -7.505485,-18.788517 z"
       style="vector-effect:none;fill:#97b190;fill-opacity:1;stroke-width:0.264583;stop-color:#000000" />
    <path
       style="fill:#979e90;fill-opacity:1;stroke:none;stroke-width:0.264583px;stroke-linecap:butt;stroke-linejoin:miter;stroke-opacity:1"
       d="m 78.560109,13.188475 c -0.0068,0.331442 0.02614,0.660272 0.110588,0.982369 0.441436,1.683896 -0.160764,3.253659 -1.290879,4.992461 -0.03259,0.05015 -0.06438,0.103759 -0.09612,0.158129 l 14.837338,13.51752 c -0.06207,-0.447651 -0.14305,-0.89631 -0.248047,-1.34617 -0.716124,-3.068193 -0.436618,-4.635728 -0.28267,-6.177917 0.04563,-0.457108 0.07402,-0.908367 0.0956,-1.357023 z"
       id="path1122"
       inkscape:connector-curvature="0" />
    <path
       sodipodi:nodetypes="cccccccc"
       inkscape:connector-curvature="0"
       id="path1131"
       d="m 75.996121,38.783462 c 0.03921,0.189841 0.08126,0.378475 0.129706,0.564822 0.877729,3.37603 0.593024,4.249517 1.016477,6.111771 l 0.08371,-5.29e-4 c -0.0012,-0.009 -0.0023,-0.01791 -0.0031,-0.02687 1.609903,-1.078249 3.345416,-1.332516 7.093636,-1.332496 0.164581,6.85e-4 0.32902,0.0031 0.492993,0.0072 z"
       style="font-variation-settings:normal;opacity:1;vector-effect:none;fill:#979e90;fill-opacity:1;stroke:none;stroke-width:0.264583px;stroke-linecap:butt;stroke-linejoin:miter;stroke-miterlimit:4;stroke-dasharray:none;stroke-dashoffset:0;stroke-opacity:1;stop-color:#000000;stop-opacity:1" />
    <path
       inkscape:connector-curvature="0"
       id="path1159"
       d="m 77.174403,45.558762 c -0.423454,-1.862252 -0.138651,-2.735341 -1.01638,-6.111373 -0.637129,-2.450604 -0.43595,-5.213655 -0.436743,-8.019527 -0.0013,-4.649846 0.614388,-10.280566 1.946016,-12.329419 1.130114,-1.738801 1.732135,-3.308273 1.290699,-4.992168 -0.813567,-3.103416 2.933737,-6.8279865 4.982824,-7.5612845 2.923617,-1.0462625 9.037446,7.6768455 7.93655,18.7052525 -0.153946,1.542189 -0.433136,3.109425 0.282988,6.177619 1.185873,5.080805 -0.530425,10.059684 -1.436933,14.05972"
       style="vector-effect:none;fill:none;fill-opacity:1;stroke:#1e5344;stroke-width:0.264583;stroke-opacity:1;stop-color:#000000"
       sodipodi:nodetypes="cscsssssc" />
  </g>
</svg>
