<?xml version="1.0" encoding="UTF-8" standalone="no"?>
<svg
   xmlns:dc="http://purl.org/dc/elements/1.1/"
   xmlns:cc="http://creativecommons.org/ns#"
   xmlns:rdf="http://www.w3.org/1999/02/22-rdf-syntax-ns#"
   xmlns:svg="http://www.w3.org/2000/svg"
   xmlns="http://www.w3.org/2000/svg"
   xmlns:sodipodi="http://sodipodi.sourceforge.net/DTD/sodipodi-0.dtd"
   xmlns:inkscape="http://www.inkscape.org/namespaces/inkscape"
   enable-background="new"
   sodipodi:docname="human_compressed_varient.svg"
   inkscape:version="1.0alpha (4ebf9a1c96, 2019-03-24)"
   id="svg201"
   version="1.1"
   viewBox="0 0 210 210"
   height="210mm"
   width="210mm">
  <style
     id="style475" />
  <defs
     id="defs195" />
  <sodipodi:namedview
     inkscape:window-maximized="1"
     inkscape:window-y="0"
     inkscape:window-x="0"
     inkscape:window-height="738"
     inkscape:window-width="1366"
     showgrid="false"
     inkscape:document-rotation="0"
     inkscape:current-layer="layer7"
     inkscape:document-units="mm"
     inkscape:cy="651.79175"
     inkscape:cx="403.68187"
     inkscape:zoom="1.039572"
     inkscape:pageshadow="2"
     inkscape:pageopacity="0.0"
     borderopacity="1.0"
     bordercolor="#666666"
     pagecolor="#ffffff"
     id="base" />
  <metadata
     id="metadata198">
    <rdf:RDF>
      <cc:Work
         rdf:about="">
        <dc:format>image/svg+xml</dc:format>
        <dc:type
           rdf:resource="http://purl.org/dc/dcmitype/StillImage" />
        <dc:title />
      </cc:Work>
    </rdf:RDF>
  </metadata>
  <g
     sodipodi:insensitive="true"
     style="display:inline"
     inkscape:label="guide"
     id="guide"
     inkscape:groupmode="layer">
    <rect
       y="-0.95549345"
       x="-0.76453775"
       height="212.94484"
       width="212.106"
       id="rect969"
       style="vector-effect:none;fill:#00000f;stroke-width:0.264583;stop-color:#000000" />
  </g>
  <g
     style="display:inline"
     inkscape:label="contents"
     id="contents"
     inkscape:groupmode="layer">
    <g
       style="display:inline"
       inkscape:label="back"
       id="layer7"
       inkscape:groupmode="layer">
      <rect
         inkscape:label="hat"
         y="38.862427"
         x="56.229137"
         height="63.171513"
         width="99.34597"
         id="guide_hat_back"
         style="display:inline;opacity:0.992029;fill:#999999;fill-opacity:0.440954;fill-rule:evenodd;stroke-width:0.202308">
        <title
           id="title1335-5-6-0-0">hat</title>
      </rect>
      <path
         inkscape:label="#rect364"
         style="display:inline;fill:#e6e6e6;stroke-width:0.0549396"
         d="m 58.024343,101.3199 6.567241,10.73204 0.417537,11.52936 -21.387607,-13.3076 z"
         id="guide_ear-5-4"
         inkscape:connector-curvature="0"
         sodipodi:nodetypes="ccccc" />
      <rect
         style="display:inline;opacity:0.992029;fill:#999999;fill-opacity:0.440954;fill-rule:evenodd;stroke-width:0.202308"
         id="guide_hair_back-1-2"
         width="99.34597"
         height="63.171513"
         x="56.362476"
         y="38.908894"
         inkscape:label="hair">
        <title
           id="title1335-5-6-7">hair</title>
      </rect>
      <path
         sodipodi:nodetypes="ccccc"
         inkscape:connector-curvature="0"
         id="guide_ear-5-4-2"
         d="m 155.36233,101.43488 -6.56728,10.73205 -0.41754,11.52936 21.38772,-13.3076 z"
         style="display:inline;fill:#e6e6e6;stroke-width:0.0549397"
         inkscape:label="#rect364" />
      <rect
         style="display:inline;vector-effect:none;fill:#0000ff;stroke-width:0.261648;stop-color:#000000"
         id="guide_neck"
         width="64.551804"
         height="58.634922"
         x="74.531593"
         y="143.13577"
         inkscape:label="#rect589" />
    </g>
    <g
       inkscape:label="mid"
       id="layer6"
       inkscape:groupmode="layer"
       sodipodi:insensitive="true">
      <path
         inkscape:label="skull_cap"
         sodipodi:nodetypes="ccccc"
         inkscape:connector-curvature="0"
         id="guide_skull_cap-1"
         d="m 58.506782,43.693862 96.878678,-0.170744 0.0763,41.981313 -98.293688,1.940062 z"
         style="display:inline;fill:#916f6f;fill-opacity:0.751712;stroke-width:0.322575" />
      <path
         inkscape:label="cheek_bones"
         sodipodi:nodetypes="ccccc"
         inkscape:connector-curvature="0"
         id="guide_cheek_bones-1"
         d="m 57.16782,87.443559 98.2931,-1.939345 -8.53599,44.420616 -80.643204,-1.31611 z"
         style="display:inline;fill:#ffb380;fill-opacity:0.751712;stroke-width:0.322575" />
      <path
         inkscape:label="mandible"
         sodipodi:nodetypes="ccccc"
         inkscape:connector-curvature="0"
         id="guide_mandible-1"
         d="m 66.279758,128.60758 80.645312,1.31639 -0.71108,36.71408 -77.600133,-2.25681 z"
         style="display:inline;fill:#ff2a2a;fill-opacity:0.751712;stroke-width:0.322575" />
      <rect
         inkscape:label="mouth"
         y="139.26718"
         x="84.461067"
         height="14.150167"
         width="45.049568"
         id="guide_mouth-1"
         style="display:inline;fill:#999999;fill-rule:evenodd;stroke-width:0.301455" />
      <rect
         style="display:inline;fill:#ff8080;fill-rule:evenodd;stroke-width:0.336333"
         id="guide_mustache"
         width="21.857565"
         height="13.566944"
         x="96.262741"
         y="125.5994"
         inkscape:label="mouth" />
      <rect
         inkscape:label="nose"
         y="102.41966"
         x="96.364937"
         height="23.739454"
         width="21.762373"
         id="guide_nose-1"
         style="display:inline;fill:#b3b3b3;stroke-width:0.144759" />
    </g>
    <g
       inkscape:label="option_adult_eyes"
       id="option_adult_eyes"
       inkscape:groupmode="layer"
       style="display:inline"
       sodipodi:insensitive="true">
      <path
         inkscape:connector-curvature="0"
         id="guide_eye-1"
         d="M 70.655375,89.887698 H 96.239984 V 115.47253 H 70.655375 Z"
         style="display:inline;vector-effect:none;fill:#916f6f;fill-opacity:0.751712;stroke-width:0.218915;stop-color:#000000" />
      <path
         style="display:inline;vector-effect:none;fill:#916f6f;fill-opacity:0.751712;stroke-width:0.218915;stop-color:#000000"
         d="m 144.82708,89.883725 h -25.58461 v 25.584835 h 25.58461 z"
         id="guide_eye-1-6"
         inkscape:connector-curvature="0" />
    </g>
    <g
       sodipodi:insensitive="true"
       inkscape:groupmode="layer"
       id="option_cheek_shadow"
       inkscape:label="option_cheek_shadow">
      <path
         sodipodi:nodetypes="ccccccc"
         inkscape:connector-curvature="0"
         id="path2245"
         d="m 93.783264,130.30523 c -6.837999,2.39452 -13.675996,4.78903 -20.513993,7.18354 0.341241,1.28362 0.189761,2.69477 0.697671,3.91314 0.983089,1.94601 2.410759,4.17205 4.777754,4.4289 2.493623,0.12381 4.501491,-1.72475 6.188511,-3.32715 0.48001,-1.1151 0.543909,-2.53187 1.230326,-3.64187 1.763927,-3.43975 4.738671,-6.06792 7.619731,-8.55656 z"
         style="display:inline;opacity:0.227262;fill:#000000;fill-opacity:0.0902395;stroke:none;stroke-width:0.169298px;stroke-linecap:butt;stroke-linejoin:miter;stroke-opacity:1" />
      <path
         sodipodi:nodetypes="cccccccccc"
         inkscape:connector-curvature="0"
         id="path1472"
         d="m 67.116903,119.32669 c -0.675338,1.05732 1.286105,2.61055 0.575717,3.93242 0.129339,2.56111 2.645768,5.09659 3.533517,7.42643 0.936763,2.18054 1.620306,4.46825 2.043134,6.80323 6.837997,-2.39451 13.675994,-4.78902 20.513993,-7.18354 0.906309,-0.92295 2.447888,-1.64073 2.391923,-3.13405 -0.380503,-1.95578 -2.325661,-4.89435 -2.886851,-6.77588 -5.814684,1.60821 -12.147931,2.50154 -18.005565,0.59572 -2.088563,-0.64216 -4.485245,-3.86293 -6.312299,-5.02098 -5.256662,3.59889 4.654092,3.79214 -1.853569,3.35665 z"
         style="display:inline;opacity:0.511074;fill:#000000;fill-opacity:0.0902395;stroke:none;stroke-width:0.169298px;stroke-linecap:butt;stroke-linejoin:miter;stroke-opacity:1" />
      <path
         style="display:inline;opacity:0.227262;fill:#000000;fill-opacity:0.0902395;stroke:none;stroke-width:0.169298px;stroke-linecap:butt;stroke-linejoin:miter;stroke-opacity:1"
         d="m 123.04378,130.53124 c 6.838,2.39452 13.676,4.78903 20.514,7.18354 -0.34124,1.28362 -0.18976,2.69477 -0.69767,3.91314 -0.98309,1.94601 -2.41076,4.17205 -4.77776,4.4289 -2.49362,0.12381 -4.50149,-1.72475 -6.18851,-3.32715 -0.48001,-1.1151 -0.54391,-2.53187 -1.23033,-3.64187 -1.76392,-3.43975 -4.73867,-6.06792 -7.61973,-8.55656 z"
         id="path2245-5"
         inkscape:connector-curvature="0"
         sodipodi:nodetypes="ccccccc" />
      <path
         style="display:inline;opacity:0.511074;fill:#000000;fill-opacity:0.0902395;stroke:none;stroke-width:0.169298px;stroke-linecap:butt;stroke-linejoin:miter;stroke-opacity:1"
         d="m 149.71014,119.5527 c 0.67534,1.05732 -1.2861,2.61055 -0.57571,3.93242 -0.12934,2.56111 -2.64577,5.09659 -3.53352,7.42643 -0.93676,2.18054 -1.62031,4.46825 -2.04313,6.80323 -6.838,-2.39451 -13.676,-4.78902 -20.514,-7.18354 -0.90631,-0.92295 -2.44788,-1.64073 -2.39192,-3.13405 0.3805,-1.95578 2.32566,-4.89435 2.88685,-6.77588 5.81469,1.60821 12.14793,2.50154 18.00557,0.59572 2.08856,-0.64216 4.48524,-3.86293 6.3123,-5.02098 5.25666,3.59889 -4.6541,3.79214 1.85356,3.35665 z"
         id="path1472-2"
         inkscape:connector-curvature="0"
         sodipodi:nodetypes="cccccccccc" />
    </g>
    <g
       sodipodi:insensitive="true"
       inkscape:groupmode="layer"
       id="option_cheek_shadow2"
       inkscape:label="option_cheek_shadow2">
      <path
         sodipodi:nodetypes="ccccccc"
         inkscape:connector-curvature="0"
         id="path1171"
         d="m 93.783264,130.30523 c -6.837999,2.39452 -13.675996,4.78903 -20.513993,7.18354 0.341241,1.28362 0.189761,2.69477 0.697671,3.91314 0.983089,1.94601 2.410759,4.17205 4.777754,4.4289 2.493623,0.12381 4.501491,-1.72475 6.188511,-3.32715 0.48001,-1.1151 0.543909,-2.53187 1.230326,-3.64187 1.763927,-3.43975 4.738671,-6.06792 7.619731,-8.55656 z"
         style="display:inline;opacity:0.091394;fill:#000000;fill-opacity:0.0902395;stroke:none;stroke-width:0.169298px;stroke-linecap:butt;stroke-linejoin:miter;stroke-opacity:1" />
      <path
         sodipodi:nodetypes="cccccccccc"
         inkscape:connector-curvature="0"
         id="path1173"
         d="m 67.116903,119.32669 c -0.675338,1.05732 1.286105,2.61055 0.575717,3.93242 0.129339,2.56111 2.645768,5.09659 3.533517,7.42643 0.936763,2.18054 1.620306,4.46825 2.043134,6.80323 6.837997,-2.39451 13.675994,-4.78902 20.513993,-7.18354 0.906309,-0.92295 2.447888,-1.64073 2.391923,-3.13405 -0.380503,-1.95578 -2.325661,-4.89435 -2.886851,-6.77588 -5.814684,1.60821 -12.147931,2.50154 -18.005565,0.59572 -2.088563,-0.64216 -4.485245,-3.86293 -6.312299,-5.02098 -5.256662,3.59889 4.654092,3.79214 -1.853569,3.35665 z"
         style="display:inline;opacity:0.091394;fill:#000000;fill-opacity:0.0902395;stroke:none;stroke-width:0.169298px;stroke-linecap:butt;stroke-linejoin:miter;stroke-opacity:1" />
      <path
         style="display:inline;opacity:0.091394;fill:#000000;fill-opacity:0.0902395;stroke:none;stroke-width:0.169298px;stroke-linecap:butt;stroke-linejoin:miter;stroke-opacity:1"
         d="m 123.04378,130.53124 c 6.838,2.39452 13.676,4.78903 20.514,7.18354 -0.34124,1.28362 -0.18976,2.69477 -0.69767,3.91314 -0.98309,1.94601 -2.41076,4.17205 -4.77776,4.4289 -2.49362,0.12381 -4.50149,-1.72475 -6.18851,-3.32715 -0.48001,-1.1151 -0.54391,-2.53187 -1.23033,-3.64187 -1.76392,-3.43975 -4.73867,-6.06792 -7.61973,-8.55656 z"
         id="path1175"
         inkscape:connector-curvature="0"
         sodipodi:nodetypes="ccccccc" />
      <path
         style="display:inline;opacity:0.091394;fill:#000000;fill-opacity:0.0902395;stroke:none;stroke-width:0.169298px;stroke-linecap:butt;stroke-linejoin:miter;stroke-opacity:1"
         d="m 149.71014,119.5527 c 0.67534,1.05732 -1.2861,2.61055 -0.57571,3.93242 -0.12934,2.56111 -2.64577,5.09659 -3.53352,7.42643 -0.93676,2.18054 -1.62031,4.46825 -2.04313,6.80323 -6.838,-2.39451 -13.676,-4.78902 -20.514,-7.18354 -0.90631,-0.92295 -2.44788,-1.64073 -2.39192,-3.13405 0.3805,-1.95578 2.32566,-4.89435 2.88685,-6.77588 5.81469,1.60821 12.14793,2.50154 18.00557,0.59572 2.08856,-0.64216 4.48524,-3.86293 6.3123,-5.02098 5.25666,3.59889 -4.6541,3.79214 1.85356,3.35665 z"
         id="path1177"
         inkscape:connector-curvature="0"
         sodipodi:nodetypes="cccccccccc" />
    </g>
    <g
       inkscape:label="option_child_eyes"
       id="option_child_eyes"
       inkscape:groupmode="layer"
       sodipodi:insensitive="true">
      <path
         inkscape:connector-curvature="0"
         id="guide_eye-1111"
         d="M 69.589658,86.413644 H 102.12232 V 118.94659 H 69.589658 Z"
         style="display:inline;vector-effect:none;fill:#916f6f;fill-opacity:0.751712;stroke-width:0.278367;stop-color:#000000" />
      <path
         style="display:inline;vector-effect:none;fill:#916f6f;fill-opacity:0.751712;stroke-width:0.28007;stop-color:#000000"
         d="m 147.49756,86.310111 h -32.73177 v 32.732069 h 32.73177 z"
         id="guide_eye-11112"
         inkscape:connector-curvature="0" />
    </g>
    <g
       sodipodi:insensitive="true"
       style="display:inline"
       inkscape:label="fore"
       id="layer5"
       inkscape:groupmode="layer">
      <rect
         inkscape:label="hair"
         y="38.862431"
         x="56.229137"
         height="63.171509"
         width="99.34597"
         id="guide_hair-1"
         style="display:inline;opacity:0.992029;fill:#999999;fill-opacity:0.440954;fill-rule:evenodd;stroke-width:0.202308">
        <title
           id="title1335-5-6">hair</title>
      </rect>
      <rect
         inkscape:label="#rect507"
         y="94.224701"
         x="63.314182"
         height="28.802317"
         width="88.517418"
         id="guide_glasses"
         style="display:inline;vector-effect:none;fill:#00000f;fill-opacity:0.358395;stroke-width:0.277723;stop-color:#000000" />
      <rect
         style="display:inline;opacity:0.992029;fill:#999999;fill-opacity:0.440954;fill-rule:evenodd;stroke-width:0.202308"
         id="guide_hat"
         width="99.34597"
         height="63.171513"
         x="56.229137"
         y="38.862427"
         inkscape:label="hat">
        <title
           id="title1335-5-6-0">hat</title>
      </rect>
    </g>
  </g>
</svg>
