<?xml version="1.0" encoding="UTF-8" standalone="no"?>
<svg
   xmlns:dc="http://purl.org/dc/elements/1.1/"
   xmlns:cc="http://creativecommons.org/ns#"
   xmlns:rdf="http://www.w3.org/1999/02/22-rdf-syntax-ns#"
   xmlns:svg="http://www.w3.org/2000/svg"
   xmlns="http://www.w3.org/2000/svg"
   xmlns:sodipodi="http://sodipodi.sourceforge.net/DTD/sodipodi-0.dtd"
   xmlns:inkscape="http://www.inkscape.org/namespaces/inkscape"
   sodipodi:docname="conical.svg"
   inkscape:version="1.0alpha (4ebf9a1c96, 2019-03-24)"
   id="svg707"
   version="1.1"
   viewBox="0 0 210 210"
   height="210mm"
   width="210mm">
  <style
     id="style261">
     .hair_color {
         fill: blue !important;
     }
     .hair_color_outline {
         stroke: black !important;
     }
     </style>
  <defs
     id="defs701" />
  <sodipodi:namedview
     inkscape:window-maximized="1"
     inkscape:window-y="0"
     inkscape:window-x="0"
     inkscape:window-height="738"
     inkscape:window-width="1366"
     showgrid="false"
     inkscape:document-rotation="0"
     inkscape:current-layer="contents"
     inkscape:document-units="mm"
     inkscape:cy="201.0631"
     inkscape:cx="417.1376"
     inkscape:zoom="1.0263363"
     inkscape:pageshadow="2"
     inkscape:pageopacity="0.0"
     borderopacity="1.0"
     bordercolor="#666666"
     pagecolor="#ffffff"
     id="base"
     objecttolerance="1"
     guidetolerance="1" />
  <metadata
     id="metadata704">
    <rdf:RDF>
      <cc:Work
         rdf:about="">
        <dc:format>image/svg+xml</dc:format>
        <dc:type
           rdf:resource="http://purl.org/dc/dcmitype/StillImage" />
        <dc:title />
      </cc:Work>
    </rdf:RDF>
  </metadata>
  <g
     sodipodi:insensitive="true"
     style="display:inline;opacity:0.996614"
     inkscape:label="hints"
     id="layer7"
     inkscape:groupmode="layer">
    <ellipse
       ry="79.833107"
       rx="64.360046"
       cy="105.91379"
       cx="106.90763"
       id="path10811"
       style="fill:#e6e6e6;stroke-width:0.264583" />
    <ellipse
       ry="7.4878688"
       rx="12.115626"
       cy="96.871117"
       cx="70.529694"
       id="path10813"
       style="fill:#808080;stroke-width:0.264583" />
    <ellipse
       ry="7.4878693"
       rx="12.115626"
       cy="95.969009"
       cx="145.746"
       id="path10813-1"
       style="display:inline;fill:#808080;stroke-width:0.264583" />
    <path
       sodipodi:nodetypes="cccssssssccscscccc"
       inkscape:connector-curvature="0"
       id="path10860"
       d="m 25.641565,128.06759 c -2.999605,20.28064 33.000792,8.05253 30.48352,10.79868 C 47.751103,123.54154 52.386823,108.9052 50.74781,93.936834 50.4395,90.866281 79.145806,77.657403 96.203908,79.022904 c 1.728681,0.138381 2.379372,-30.850159 4.118792,-30.909667 1.5124,-0.05174 4.11324,30.547278 5.62869,30.54851 5.56392,0.0045 11.13379,0.362138 16.60249,1.043853 1.46479,0.182598 5.24766,-24.299638 6.69588,-24.071093 1.30115,0.205336 0.26943,25.117078 1.55404,25.358649 12.48503,2.347815 33.53003,11.749396 33.53003,11.749396 0.37478,17.820178 -0.40475,35.060038 -7.31748,49.216548 0.005,0.0151 1.07067,-0.0356 2.18248,0.85875 2.61652,2.10468 11.21573,-26.63988 10.29371,-27.92718 2.74323,-2.50382 -3.94827,29.01644 -7.47424,28.89035 -7.31942,-0.26174 19.74474,2.25614 21.11796,-11.29035 C 186.37072,109.22954 171.29049,52.536799 165.72304,47.227283 151.8241,5.0108301 66.949715,7.841641 48.227464,45.439274 42.13372,53.095622 26.766652,100.4738 25.641565,128.06759 Z"
       style="display:inline;opacity:0.267811;stroke-width:0.965;stroke-miterlimit:4;stroke-dasharray:none"
       class="hair_color hair_color_outline" />
    <path
       sodipodi:nodetypes="cccccssccc"
       d="M 39.197977,95.109817 C 39.093151,92.787371 39.04497,88.641553 39.824282,87.526169 50.541708,12.373612 161.0422,-12.82412 172.72581,88.518381 c 0.39256,1.844487 -0.0508,3.668451 -0.0799,5.502583 -4.28489,-1.952806 -5.53853,-4.518726 -6.27513,-8.224919 C 164.02037,73.969873 154.57697,50.158718 145.02994,44.462748 135.99848,39.074374 90.754408,35.095805 63.906994,49.17275 53.497489,54.630781 54.46282,73.355488 47.528992,84.799075 43.832099,90.233351 42.665018,96.375026 39.198027,95.109817 Z"
       class="hair_color"
       id="path240"
       inkscape:connector-curvature="0"
       style="display:inline;opacity:0.267811" />
  </g>
  <g
     sodipodi:insensitive="true"
     style="display:inline;opacity:0.509806"
     id="guide"
     inkscape:groupmode="layer"
     inkscape:label="guide">
    <rect
       y="22.751354"
       x="39.008324"
       height="72.37822"
       width="133.21216"
       id="rect259"
       style="fill:#999999;fill-rule:evenodd;stroke-width:0.277397" />
  </g>
  <g
     style="display:inline;opacity:1"
     inkscape:label="contents"
     id="contents"
     inkscape:groupmode="layer">
    <path
       id="path2139"
       style="fill:#502912;fill-opacity:1;stroke:none;stroke-width:0.342082px;stroke-linecap:butt;stroke-linejoin:miter;stroke-opacity:1"
       d="m 187.47579,86.965202 c -2.75666,7.013212 -9.16225,0.411694 -14.60468,1.418632 C 133.78603,77.410639 95.523258,66.985112 42.307007,87.901025 36.757922,87.323209 28.889105,92.98266 25.017392,87.816416 58.030284,62.220534 139.84828,60.302944 187.47579,86.965202 Z"
       inkscape:connector-curvature="0"
       sodipodi:nodetypes="ccccc" />
    <path
       id="path2917"
       style="fill:#502912;fill-opacity:1;stroke:none;stroke-width:0.342082px;stroke-linecap:butt;stroke-linejoin:miter;stroke-opacity:1"
       d="M 24.634767,88.015065 C 49.493222,-40.368291 175.32514,-28.666621 187.47579,87.523808 122.96631,59.46806 69.574783,65.601913 24.634767,88.015065 Z"
       inkscape:connector-curvature="0"
       sodipodi:nodetypes="ccc" />
    <path
       sodipodi:nodetypes="ccccc"
       inkscape:connector-curvature="0"
       d="m 187.47579,86.965202 c -2.75666,7.013212 -3.08822,1.528899 -8.53065,2.535837 C 132.78749,79.24274 61.782218,81.297772 32.845036,89.843151 27.295951,89.265334 28.889105,92.98266 25.017392,87.816417 58.030285,62.220534 139.84828,60.302944 187.47579,86.965202 Z"
       style="display:inline;opacity:1;fill:#000000;fill-opacity:0.316394;stroke:none;stroke-width:0.342082px;stroke-linecap:butt;stroke-linejoin:miter;stroke-opacity:1"
       id="path2139-4" />
    <path
       sodipodi:nodetypes="cccc"
       inkscape:connector-curvature="0"
       id="path7020"
       d="M 81.340062,2.0117852 C 87.704813,25.032975 91.968141,48.81813 109.34473,67.836001 81.348912,67.195847 45.501114,71.914715 25.209413,87.575468 30.430446,61.005338 39.504023,25.088443 81.340062,2.0117852 Z"
       style="fill:#000000;fill-opacity:0.07498996;stroke:none;stroke-width:0.264583px;stroke-linecap:butt;stroke-linejoin:miter;stroke-opacity:1" />
  </g>
</svg>
