<?xml version="1.0" encoding="UTF-8" standalone="no"?>
<svg
   xmlns:dc="http://purl.org/dc/elements/1.1/"
   xmlns:cc="http://creativecommons.org/ns#"
   xmlns:rdf="http://www.w3.org/1999/02/22-rdf-syntax-ns#"
   xmlns:svg="http://www.w3.org/2000/svg"
   xmlns="http://www.w3.org/2000/svg"
   xmlns:sodipodi="http://sodipodi.sourceforge.net/DTD/sodipodi-0.dtd"
   xmlns:inkscape="http://www.inkscape.org/namespaces/inkscape"
   sodipodi:docname="pillbox.svg"
   inkscape:version="1.0alpha (4ebf9a1c96, 2019-03-24)"
   id="svg707"
   version="1.1"
   viewBox="0 0 210 210"
   height="210mm"
   width="210mm">
  <style
     id="style261">
     .hair_color {
         fill: blue !important;
     }
     .hair_color_outline {
         stroke: black !important;
     }
     </style>
  <defs
     id="defs701" />
  <sodipodi:namedview
     inkscape:window-maximized="1"
     inkscape:window-y="0"
     inkscape:window-x="0"
     inkscape:window-height="738"
     inkscape:window-width="1366"
     showgrid="false"
     inkscape:document-rotation="0"
     inkscape:current-layer="contents"
     inkscape:document-units="mm"
     inkscape:cy="219.47233"
     inkscape:cx="408.23191"
     inkscape:zoom="1.03"
     inkscape:pageshadow="2"
     inkscape:pageopacity="0.0"
     borderopacity="1.0"
     bordercolor="#666666"
     pagecolor="#ffffff"
     id="base"
     objecttolerance="1"
     guidetolerance="1" />
  <metadata
     id="metadata704">
    <rdf:RDF>
      <cc:Work
         rdf:about="">
        <dc:format>image/svg+xml</dc:format>
        <dc:type
           rdf:resource="http://purl.org/dc/dcmitype/StillImage" />
        <dc:title />
      </cc:Work>
    </rdf:RDF>
  </metadata>
  <g
     sodipodi:insensitive="true"
     style="display:inline;opacity:0.996614"
     inkscape:label="hints"
     id="layer7"
     inkscape:groupmode="layer">
    <ellipse
       ry="79.833107"
       rx="64.360046"
       cy="105.91379"
       cx="106.90763"
       id="path10811"
       style="fill:#e6e6e6;stroke-width:0.264583" />
    <ellipse
       ry="7.4878688"
       rx="12.115626"
       cy="96.871117"
       cx="70.529694"
       id="path10813"
       style="fill:#808080;stroke-width:0.264583" />
    <ellipse
       ry="7.4878693"
       rx="12.115626"
       cy="95.969009"
       cx="145.746"
       id="path10813-1"
       style="display:inline;fill:#808080;stroke-width:0.264583" />
    <path
       sodipodi:nodetypes="cccssssssccscscccc"
       inkscape:connector-curvature="0"
       id="path10860"
       d="m 25.641565,128.06759 c -2.999605,20.28064 33.000792,8.05253 30.48352,10.79868 C 47.751103,123.54154 52.386823,108.9052 50.74781,93.936834 50.4395,90.866281 79.145806,77.657403 96.203908,79.022904 c 1.728681,0.138381 2.379372,-30.850159 4.118792,-30.909667 1.5124,-0.05174 4.11324,30.547278 5.62869,30.54851 5.56392,0.0045 11.13379,0.362138 16.60249,1.043853 1.46479,0.182598 5.24766,-24.299638 6.69588,-24.071093 1.30115,0.205336 0.26943,25.117078 1.55404,25.358649 12.48503,2.347815 33.53003,11.749396 33.53003,11.749396 0.37478,17.820178 -0.40475,35.060038 -7.31748,49.216548 0.005,0.0151 1.07067,-0.0356 2.18248,0.85875 2.61652,2.10468 11.21573,-26.63988 10.29371,-27.92718 2.74323,-2.50382 -3.94827,29.01644 -7.47424,28.89035 -7.31942,-0.26174 19.74474,2.25614 21.11796,-11.29035 C 186.37072,109.22954 171.29049,52.536799 165.72304,47.227283 151.8241,5.0108301 66.949715,7.841641 48.227464,45.439274 42.13372,53.095622 26.766652,100.4738 25.641565,128.06759 Z"
       style="display:inline;opacity:0.267811;stroke-width:0.965;stroke-miterlimit:4;stroke-dasharray:none"
       class="hair_color hair_color_outline" />
    <path
       sodipodi:nodetypes="cccccssccc"
       d="M 39.197977,95.109817 C 39.093151,92.787371 39.04497,88.641553 39.824282,87.526169 50.541708,12.373612 161.0422,-12.82412 172.72581,88.518381 c 0.39256,1.844487 -0.0508,3.668451 -0.0799,5.502583 -4.28489,-1.952806 -5.53853,-4.518726 -6.27513,-8.224919 C 164.02037,73.969873 154.57697,50.158718 145.02994,44.462748 135.99848,39.074374 90.754408,35.095805 63.906994,49.17275 53.497489,54.630781 54.46282,73.355488 47.528992,84.799075 43.832099,90.233351 42.665018,96.375026 39.198027,95.109817 Z"
       class="hair_color"
       id="path240"
       inkscape:connector-curvature="0"
       style="display:inline;opacity:0.267811" />
  </g>
  <g
     sodipodi:insensitive="true"
     style="display:inline;opacity:0.509806"
     id="guide"
     inkscape:groupmode="layer"
     inkscape:label="guide">
    <rect
       y="22.751354"
       x="39.008324"
       height="72.37822"
       width="133.21216"
       id="rect259"
       style="fill:#999999;fill-rule:evenodd;stroke-width:0.277397" />
  </g>
  <g
     style="display:inline;opacity:1"
     inkscape:label="contents"
     id="contents"
     inkscape:groupmode="layer">
    <path
       id="path2917"
       style="fill:#0c0c16;fill-opacity:1;stroke:none;stroke-width:0.342082px;stroke-linecap:butt;stroke-linejoin:miter;stroke-opacity:1"
       d="M 24.634767,88.015065 C 32.548639,55.372738 42.117908,13.176896 54.046109,5.6795613 73.382046,-6.8722032 144.32723,-5.821344 161.95824,5.6701022 172.32515,10.301723 180.56326,57.76354 184.15459,87.075297 119.64511,59.019549 69.574783,65.601913 24.634767,88.015065 Z"
       inkscape:connector-curvature="0"
       sodipodi:nodetypes="ccccc" />
    <path
       id="path2139"
       style="fill:#9b948f;fill-opacity:1;stroke:none;stroke-width:0.342082px;stroke-linecap:butt;stroke-linejoin:miter;stroke-opacity:1"
       d="m 186.46232,68.192023 c 3.36247,6.443655 3.70435,23.59259 -3.84738,24.795858 C 143.52986,82.014686 83.190853,71.28711 29.974602,92.203023 20.932899,92.621967 18.245774,74.283861 23.198059,66.59933 56.210951,41.003448 138.83481,41.529765 186.46232,68.192023 Z"
       inkscape:connector-curvature="0"
       sodipodi:nodetypes="ccccc" />
    <path
       sodipodi:nodetypes="ccccc"
       inkscape:connector-curvature="0"
       d="m 24.914758,89.983653 c 1.324198,0.1284 1.664199,3.868157 5.873676,2.124685 64.392715,-12.622675 113.878336,-8.289078 151.826256,0.879783 4.1024,-0.705435 4.24318,-3.829381 0.15038,-4.614704 C 119.15789,62.844383 26.062,72.483519 24.914758,89.983653 Z"
       style="display:inline;opacity:1;fill:#000000;fill-opacity:0.227511;stroke:none;stroke-width:0.342082px;stroke-linecap:butt;stroke-linejoin:miter;stroke-opacity:1"
       id="path2139-3" />
    <path
       style="fill:#000000;fill-opacity:0.139823;stroke:none;stroke-width:0.264583px;stroke-linecap:butt;stroke-linejoin:miter;stroke-opacity:1"
       d="M 84.291563,-2.5395825 C 84.220034,18.651651 87.373649,35.815536 94.914534,47.500886 73.004937,49.969979 50.14319,49.960475 31.396514,60.663163 L 47.172231,15.235904 C 49.627215,9.1341 53.439344,4.6265617 59.663372,2.952329 Z"
       id="path6377"
       inkscape:connector-curvature="0"
       sodipodi:nodetypes="cccccc" />
  </g>
</svg>
