<?xml version="1.0" encoding="UTF-8" standalone="no"?>
<svg
   xmlns:dc="http://purl.org/dc/elements/1.1/"
   xmlns:cc="http://creativecommons.org/ns#"
   xmlns:rdf="http://www.w3.org/1999/02/22-rdf-syntax-ns#"
   xmlns:svg="http://www.w3.org/2000/svg"
   xmlns="http://www.w3.org/2000/svg"
   xmlns:sodipodi="http://sodipodi.sourceforge.net/DTD/sodipodi-0.dtd"
   xmlns:inkscape="http://www.inkscape.org/namespaces/inkscape"
   width="210mm"
   height="210mm"
   viewBox="0 0 210 210"
   version="1.1"
   id="svg707"
   inkscape:version="1.0alpha (4ebf9a1c96, 2019-03-24)"
   sodipodi:docname="leather_top_hat.svg">
  <style
     id="style261">
     .hair_color {
         fill: blue !important;
     }
     .hair_color_outline {
         stroke: black !important;
     }
     </style>
  <defs
     id="defs701" />
  <sodipodi:namedview
     guidetolerance="1"
     objecttolerance="1"
     id="base"
     pagecolor="#ffffff"
     bordercolor="#666666"
     borderopacity="1.0"
     inkscape:pageopacity="0.0"
     inkscape:pageshadow="2"
     inkscape:zoom="0.83661997"
     inkscape:cx="423.61347"
     inkscape:cy="396.51293"
     inkscape:document-units="mm"
     inkscape:current-layer="contents"
     inkscape:document-rotation="0"
     showgrid="false"
     inkscape:window-width="1366"
     inkscape:window-height="738"
     inkscape:window-x="0"
     inkscape:window-y="0"
     inkscape:window-maximized="1" />
  <metadata
     id="metadata704">
    <rdf:RDF>
      <cc:Work
         rdf:about="">
        <dc:format>image/svg+xml</dc:format>
        <dc:type
           rdf:resource="http://purl.org/dc/dcmitype/StillImage" />
        <dc:title></dc:title>
      </cc:Work>
    </rdf:RDF>
  </metadata>
  <g
     inkscape:groupmode="layer"
     id="layer7"
     inkscape:label="hints"
     style="display:inline;opacity:0.996614">
    <ellipse
       style="fill:#e6e6e6;stroke-width:0.264583"
       id="path10811"
       cx="106.90763"
       cy="105.91379"
       rx="64.360046"
       ry="79.833107" />
    <ellipse
       style="fill:#808080;stroke-width:0.264583"
       id="path10813"
       cx="70.529694"
       cy="96.871117"
       rx="12.115626"
       ry="7.4878688" />
    <ellipse
       style="display:inline;fill:#808080;stroke-width:0.264583"
       id="path10813-1"
       cx="145.746"
       cy="95.969009"
       rx="12.115626"
       ry="7.4878693" />
    <path
       class="hair_color hair_color_outline"
       style="display:inline;opacity:0.267811;stroke-width:0.965;stroke-miterlimit:4;stroke-dasharray:none"
       d="m 25.641565,128.06759 c -2.999605,20.28064 33.000792,8.05253 30.48352,10.79868 C 47.751103,123.54154 52.386823,108.9052 50.74781,93.936834 50.4395,90.866281 79.145806,77.657403 96.203908,79.022904 c 1.728681,0.138381 2.379372,-30.850159 4.118792,-30.909667 1.5124,-0.05174 4.11324,30.547278 5.62869,30.54851 5.56392,0.0045 11.13379,0.362138 16.60249,1.043853 1.46479,0.182598 5.24766,-24.299638 6.69588,-24.071093 1.30115,0.205336 0.26943,25.117078 1.55404,25.358649 12.48503,2.347815 33.53003,11.749396 33.53003,11.749396 0.37478,17.820178 -0.40475,35.060038 -7.31748,49.216548 0.005,0.0151 1.07067,-0.0356 2.18248,0.85875 2.61652,2.10468 11.21573,-26.63988 10.29371,-27.92718 2.74323,-2.50382 -3.94827,29.01644 -7.47424,28.89035 -7.31942,-0.26174 19.74474,2.25614 21.11796,-11.29035 C 186.37072,109.22954 171.29049,52.536799 165.72304,47.227283 151.8241,5.0108301 66.949715,7.841641 48.227464,45.439274 42.13372,53.095622 26.766652,100.4738 25.641565,128.06759 Z"
       id="path10860"
       inkscape:connector-curvature="0"
       sodipodi:nodetypes="cccssssssccscscccc" />
    <path
       style="display:inline;opacity:0.267811"
       inkscape:connector-curvature="0"
       id="path240"
       class="hair_color"
       d="M 39.197977,95.109817 C 39.093151,92.787371 39.04497,88.641553 39.824282,87.526169 50.541708,12.373612 161.0422,-12.82412 172.72581,88.518381 c 0.39256,1.844487 -0.0508,3.668451 -0.0799,5.502583 -4.28489,-1.952806 -5.53853,-4.518726 -6.27513,-8.224919 C 164.02037,73.969873 154.57697,50.158718 145.02994,44.462748 135.99848,39.074374 90.754408,35.095805 63.906994,49.17275 53.497489,54.630781 54.46282,73.355488 47.528992,84.799075 43.832099,90.233351 42.665018,96.375026 39.198027,95.109817 Z"
       sodipodi:nodetypes="cccccssccc" />
  </g>
  <g
     inkscape:label="guide"
     inkscape:groupmode="layer"
     id="guide"
     style="display:inline;opacity:0.509806"
     sodipodi:insensitive="true">
    <rect
       style="fill:#999999;fill-rule:evenodd;stroke-width:0.277397"
       id="rect259"
       width="133.21216"
       height="72.37822"
       x="39.008324"
       y="22.751354" />
  </g>
  <g
     inkscape:groupmode="layer"
     id="contents"
     inkscape:label="contents"
     style="display:inline;opacity:1">
    <path
       sodipodi:nodetypes="cccc"
       inkscape:connector-curvature="0"
       d="m 223.90643,102.9058 c -0.79129,-0.40551 -1.58437,-0.84389 -2.37505,-1.23868 C 164.12481,62.967439 48.128844,63.480644 -7.6665126,98.273532 5.9186645,144.54629 197.71965,147.77344 223.90643,102.9058 Z"
       style="display:inline;opacity:1;fill:#301a0d;fill-opacity:1;stroke:none;stroke-width:0.264583px;stroke-linecap:butt;stroke-linejoin:miter;stroke-opacity:1"
       id="path3550" />
  </g>
</svg>
