<?xml version="1.0" encoding="UTF-8" standalone="no"?>
<svg
   xmlns:dc="http://purl.org/dc/elements/1.1/"
   xmlns:cc="http://creativecommons.org/ns#"
   xmlns:rdf="http://www.w3.org/1999/02/22-rdf-syntax-ns#"
   xmlns:svg="http://www.w3.org/2000/svg"
   xmlns="http://www.w3.org/2000/svg"
   xmlns:sodipodi="http://sodipodi.sourceforge.net/DTD/sodipodi-0.dtd"
   xmlns:inkscape="http://www.inkscape.org/namespaces/inkscape"
   width="146.74202mm"
   height="27.623289mm"
   viewBox="0 0 146.74202 27.623289"
   version="1.1"
   id="svg707"
   inkscape:version="1.0alpha (4ebf9a1c96, 2019-03-24)"
   sodipodi:docname="jerkin_with_straps.svg">
  <defs
     id="defs701" />
  <sodipodi:namedview
     id="base"
     pagecolor="#ffffff"
     bordercolor="#666666"
     borderopacity="1.0"
     inkscape:pageopacity="0.0"
     inkscape:pageshadow="2"
     inkscape:zoom="2.8"
     inkscape:cx="315.73842"
     inkscape:cy="53.052805"
     inkscape:document-units="mm"
     inkscape:current-layer="contents"
     inkscape:document-rotation="0"
     showgrid="false"
     inkscape:window-width="1366"
     inkscape:window-height="738"
     inkscape:window-x="0"
     inkscape:window-y="0"
     inkscape:window-maximized="0"
     objecttolerance="1"
     guidetolerance="1" />
  <metadata
     id="metadata704">
    <rdf:RDF>
      <cc:Work
         rdf:about="">
        <dc:format>image/svg+xml</dc:format>
        <dc:type
           rdf:resource="http://purl.org/dc/dcmitype/StillImage" />
        <dc:title />
      </cc:Work>
    </rdf:RDF>
  </metadata>
  <style
     id="style4623">
     .hair_color {
         fill: blue !important;
     }
     .hair_color_outline {
         stroke: black !important;
     }
     .clothing_main_color {
         fill: blue !important;
     }
     .clothing_main_color_outline {
         stroke: black !important;
     }
  .skin_color { fill: #b3b3b3 !important; }
  .skin_color_outline { stroke: black !important; }
  </style>
  <g
     sodipodi:insensitive="true"
     inkscape:label="guide"
     inkscape:groupmode="layer"
     id="guide"
     style="display:inline;opacity:1"
     transform="translate(-20.422125,-160.05558)">
    <rect
       style="display:inline;opacity:1;vector-effect:none;fill:#000000;fill-opacity:0.115655;stroke-width:0.150131;stop-color:#000000"
       id="guide_shirt"
       width="168.13605"
       height="20.069498"
       x="21.077515"
       y="167.21873"
       inkscape:label="#rect6583" />
  </g>
  <g
     sodipodi:insensitive="true"
     inkscape:groupmode="layer"
     id="layer7"
     inkscape:label="hints"
     style="display:inline"
     transform="translate(-20.422125,-160.05558)">
    <rect
       style="display:inline;stroke-width:0.500438"
       class="skin_color skin_color_outline"
       y="129.8568"
       x="81.063614"
       height="41.326229"
       width="53.367142"
       id="rect672" />
    <path
       style="font-variation-settings:normal;display:inline;opacity:1;vector-effect:none;fill-opacity:1;stroke:#000000;stroke-width:0.500438;stroke-linecap:butt;stroke-linejoin:miter;stroke-miterlimit:4;stroke-dasharray:none;stroke-dashoffset:0;stroke-opacity:1;stop-color:#000000;stop-opacity:1"
       sodipodi:nodetypes="cccccc"
       class="skin_color skin_clor_outline"
       inkscape:connector-curvature="0"
       id="path694"
       d="m 134.43045,153.1363 c 6.20628,6.42125 32.08605,16.90489 40.2835,16.00279 13.85078,2.9148 12.46021,11.97039 14.35548,18.19487 l -167.328243,-0.437 c 0.416971,-7.12511 2.77153,-16.17949 12.360819,-17.70094 9.381165,-0.61557 38.418147,-9.22308 46.853173,-16.36647" />
  </g>
  <g
     style="display:inline"
     inkscape:label="contents"
     id="contents"
     inkscape:groupmode="layer"
     transform="translate(-20.422125,-160.05558)">
    <path
       sodipodi:nodetypes="cccccscsscsccc"
       inkscape:connector-curvature="0"
       id="path254"
       d="m 19.374311,167.9393 c -1.605051,6.95449 -1.22741,13.24752 -0.746494,20.20201 0,0 172.086913,0.23269 172.695823,0.86327 1.61931,-0.67143 -1.47137,-20.22214 -1.94705,-20.54226 0.52269,-4.70025 -45.36383,-12.97458 -51.31407,-13.73302 -0.88599,0.20656 -1.40476,-4.53664 -2.90893,-2.57782 -2.16498,2.81937 -18.14602,8.33071 -25.30167,8.47576 -1.03417,3.5035 1.5964,1.60926 0.13415,6.01998 -2.08669,6.29432 -2.53238,3.94136 -3.40277,-0.27244 -0.64743,-3.13438 -1.5197,2.36455 -0.041,-5.93833 -8.208062,0.16638 -22.376764,-4.74654 -27.170964,-7.64469 -2.348595,-1.41975 -2.404385,5.00153 -4.287341,2.51789 -6.714087,1.05274 -56.528666,7.75304 -55.709664,12.62965 z"
       class="clothing_main_color clothing_main_color_outline" />
    <path
       inkscape:connector-curvature="0"
       id="path889"
       d="m 107.63183,170.89726 -0.018,17.95993"
       style="fill:none;stroke:#000000;stroke-width:0.565;stroke-linecap:butt;stroke-linejoin:miter;stroke-opacity:0.54166502;stroke-miterlimit:4;stroke-dasharray:none" />
    <path
       style="fill:#000000;fill-opacity:0.02300429;stroke:#000000;stroke-width:0.305513px;stroke-linecap:butt;stroke-linejoin:miter;stroke-opacity:1"
       d="m 89.959515,170.84047 -0.624617,9.30048 c 7.341355,-0.7871 14.041372,-2.40406 21.005032,-2.37716 0.52843,0.002 0.73427,1.21474 1.26942,1.24824 4.42518,0.277 9.37458,0.31516 13.66784,0.49658 l -0.63476,-8.62632 c -4.05592,0.40375 -8.57999,-0.84816 -12.77513,0.0197 -0.77827,0.16101 -0.73446,1.20687 -1.31378,1.22388 -6.3148,0.18548 -13.11288,-0.28693 -20.594005,-1.28543 z"
       id="path1058"
       inkscape:connector-curvature="0"
       sodipodi:nodetypes="ccssccssc" />
    <ellipse
       ry="1.1409138"
       rx="1.160733"
       cy="175.82635"
       cx="92.900124"
       id="path891"
       style="fill:#fff703;fill-opacity:0.673422;stroke:none;stroke-width:0.652402;stroke-miterlimit:4;stroke-dasharray:none;stroke-opacity:0.541665" />
    <ellipse
       style="display:inline;fill:#fff703;fill-opacity:0.673422;stroke:none;stroke-width:0.652402;stroke-miterlimit:4;stroke-dasharray:none;stroke-opacity:0.541665"
       id="path891-5"
       cx="96.874489"
       cy="175.75465"
       rx="1.160733"
       ry="1.140914" />
    <ellipse
       style="display:inline;fill:#fff703;fill-opacity:0.673422;stroke:none;stroke-width:0.652402;stroke-miterlimit:4;stroke-dasharray:none;stroke-opacity:0.541665"
       id="path891-4"
       cx="122.68666"
       cy="175.43272"
       rx="1.160733"
       ry="1.140914" />
    <path
       sodipodi:nodetypes="cc"
       inkscape:connector-curvature="0"
       id="path923"
       d="m 110.65013,172.29906 c -1.19418,-0.3305 -5.31109,4.61332 0.35575,5.77329"
       style="fill:none;stroke:#e4e124;stroke-width:0.999;stroke-linecap:round;stroke-linejoin:miter;stroke-miterlimit:4;stroke-dasharray:none;stroke-opacity:0.724362" />
    <path
       sodipodi:nodetypes="cccc"
       inkscape:connector-curvature="0"
       id="path925"
       d="m 90.426748,188.34935 c 1.0803,-2.91036 3.239103,-5.48535 3.22689,-8.73543 l 2.436052,-0.22856 c -0.687256,3.88785 -3.684201,6.04428 -5.662942,8.96399 z"
       style="fill:#000000;fill-opacity:0.397211;stroke:none;stroke-width:0.264583px;stroke-linecap:butt;stroke-linejoin:miter;stroke-opacity:1" />
    <path
       sodipodi:nodetypes="cccc"
       inkscape:connector-curvature="0"
       id="path927"
       d="m 125.45568,188.63268 c -1.05651,-3.15832 -4.29655,-6.05673 -3.06174,-9.48779 l -2.24548,0.14047 c 0.17916,3.64731 3.45398,6.25969 5.30722,9.34732 z"
       style="fill:#000000;fill-opacity:0.397211;stroke:none;stroke-width:0.264583px;stroke-linecap:butt;stroke-linejoin:miter;stroke-opacity:1" />
    <path
       sodipodi:nodetypes="cccc"
       inkscape:connector-curvature="0"
       id="path929"
       d="m 124.43616,162.75257 c -1.04399,2.68116 -4.37292,5.18555 -3.11255,8.04498 l -1.83577,-0.0738 c -0.15185,-3.64975 3.29464,-5.31646 4.94832,-7.97118 z"
       style="fill:#000000;fill-opacity:0.397211;stroke:none;stroke-width:0.264583px;stroke-linecap:butt;stroke-linejoin:miter;stroke-opacity:1" />
    <path
       sodipodi:nodetypes="cccc"
       inkscape:connector-curvature="0"
       id="path931"
       d="m 93.104176,170.96183 c 0.0077,-2.45351 -2.958936,-5.36026 -4.452858,-8.04259 2.257039,2.86009 5.893544,4.90062 6.698344,8.62352 z"
       style="fill:#000000;fill-opacity:0.397211;stroke:none;stroke-width:0.264583px;stroke-linecap:butt;stroke-linejoin:miter;stroke-opacity:1" />
  </g>
</svg>
