<?xml version="1.0" encoding="UTF-8" standalone="no"?>
<svg
   xmlns:dc="http://purl.org/dc/elements/1.1/"
   xmlns:cc="http://creativecommons.org/ns#"
   xmlns:rdf="http://www.w3.org/1999/02/22-rdf-syntax-ns#"
   xmlns:svg="http://www.w3.org/2000/svg"
   xmlns="http://www.w3.org/2000/svg"
   xmlns:sodipodi="http://sodipodi.sourceforge.net/DTD/sodipodi-0.dtd"
   xmlns:inkscape="http://www.inkscape.org/namespaces/inkscape"
   sodipodi:docname="open_jerkin.svg"
   inkscape:version="1.0alpha (4ebf9a1c96, 2019-03-24)"
   id="svg707"
   version="1.1"
   viewBox="0 0 146.74202 27.623289"
   height="27.623289mm"
   width="146.74202mm">
  <defs
     id="defs701" />
  <sodipodi:namedview
     guidetolerance="1"
     objecttolerance="1"
     inkscape:window-maximized="0"
     inkscape:window-y="0"
     inkscape:window-x="0"
     inkscape:window-height="738"
     inkscape:window-width="1366"
     showgrid="false"
     inkscape:document-rotation="0"
     inkscape:current-layer="contents"
     inkscape:document-units="mm"
     inkscape:cy="37.71702"
     inkscape:cx="286.73229"
     inkscape:zoom="1.7236901"
     inkscape:pageshadow="2"
     inkscape:pageopacity="0.0"
     borderopacity="1.0"
     bordercolor="#666666"
     pagecolor="#ffffff"
     id="base" />
  <metadata
     id="metadata704">
    <rdf:RDF>
      <cc:Work
         rdf:about="">
        <dc:format>image/svg+xml</dc:format>
        <dc:type
           rdf:resource="http://purl.org/dc/dcmitype/StillImage" />
        <dc:title />
      </cc:Work>
    </rdf:RDF>
  </metadata>
  <style
     id="style4623">
     .hair_color {
         fill: blue !important;
     }
     .hair_color_outline {
         stroke: black !important;
     }
     .clothing_main_color {
         fill: blue !important;
     }
     .clothing_main_color_outline {
         stroke: black !important;
     }
  .skin_color { fill: #b3b3b3 !important; }
  .skin_color_outline { stroke: black !important; }
  </style>
  <g
     transform="translate(-20.422125,-160.05558)"
     style="display:inline;opacity:1"
     id="guide"
     inkscape:groupmode="layer"
     inkscape:label="guide"
     sodipodi:insensitive="true">
    <rect
       inkscape:label="#rect6583"
       y="167.21873"
       x="21.077515"
       height="20.069498"
       width="168.13605"
       id="guide_shirt"
       style="display:inline;opacity:1;vector-effect:none;fill:#000000;fill-opacity:0.115655;stroke-width:0.150131;stop-color:#000000" />
  </g>
  <g
     transform="translate(-20.422125,-160.05558)"
     style="display:inline"
     inkscape:label="hints"
     id="layer7"
     inkscape:groupmode="layer"
     sodipodi:insensitive="true">
    <rect
       id="rect672"
       width="53.367142"
       height="41.326229"
       x="81.063614"
       y="129.8568"
       class="skin_color skin_color_outline"
       style="display:inline;stroke-width:0.500438" />
    <path
       d="m 134.43045,153.1363 c 6.20628,6.42125 32.08605,16.90489 40.2835,16.00279 13.85078,2.9148 12.46021,11.97039 14.35548,18.19487 l -167.328243,-0.437 c 0.416971,-7.12511 2.77153,-16.17949 12.360819,-17.70094 9.381165,-0.61557 38.418147,-9.22308 46.853173,-16.36647"
       id="path694"
       inkscape:connector-curvature="0"
       class="skin_color skin_clor_outline"
       sodipodi:nodetypes="cccccc"
       style="font-variation-settings:normal;display:inline;opacity:1;vector-effect:none;fill-opacity:1;stroke:#000000;stroke-width:0.500438;stroke-linecap:butt;stroke-linejoin:miter;stroke-miterlimit:4;stroke-dasharray:none;stroke-dashoffset:0;stroke-opacity:1;stop-color:#000000;stop-opacity:1" />
  </g>
  <g
     transform="translate(-20.422125,-160.05558)"
     inkscape:groupmode="layer"
     id="contents"
     inkscape:label="contents"
     style="display:inline">
    <path
       class="clothing_main_color clothing_main_color_outline"
       d="m 101.76364,187.4446 c -2.977467,-0.16217 -0.0661,-14.4745 -0.78809,-14.36624 -21.467761,0.98422 -20.394307,-9.36775 -20.114785,-19.72748 -2.612504,-0.78738 -3.474954,1.18492 -6.220627,1.57153 -3.509537,0.55028 -16.340926,3.5366 -28.01483,6.86376 -0.820046,0.23372 -1.136401,-0.7162 -1.946676,-0.46726 -9.722146,2.98691 -18.937577,7.62734 -18.57675,9.77582 -1.20906,4.30949 8.136464,-1.23599 7.023392,16.36541 0,0 142.317826,0.0161 142.926736,0.64669 1.61931,-0.67143 -3.86528,-15.42639 8.67076,-16.24929 0.29634,-2.66484 -8.72974,-7.13238 -19.78602,-10.90723 -0.55556,-0.18968 -0.6932,0.82132 -1.25809,0.63546 -8.02168,-2.63939 -17.31353,-6.06117 -24.3801,-6.96088 -0.53658,0.89413 -2.32194,-2.6004 -4.54774,-1.59176 -2.51009,17.98232 -4.03936,21.86982 -17.05781,20.08313 -0.97195,-0.13285 0.9205,14.65735 -2.06604,14.46555"
       id="path254"
       inkscape:connector-curvature="0"
       sodipodi:nodetypes="ccccssccccsscccc" />
    <path
       style="fill:none;stroke:#000000;stroke-width:0.965;stroke-linecap:butt;stroke-linejoin:miter;stroke-miterlimit:4;stroke-dasharray:none;stroke-opacity:1"
       d="m 99.472286,176.30353 20.947014,-2.06167 -19.38318,5.71764 16.62762,0.84827 -16.64031,3.66435 16.00059,1.90419 -16.04417,1.78118"
       id="path987"
       inkscape:connector-curvature="0"
       sodipodi:nodetypes="ccccccc" />
    <circle
       r="1.3518775"
       cy="176.11182"
       cx="99.304565"
       id="path95"
       style="fill:#ffffff;fill-opacity:0.25126302;fill-rule:evenodd;stroke-width:0.264583" />
    <circle
       style="display:inline;fill:#ffffff;fill-opacity:0.25126302;fill-rule:evenodd;stroke-width:0.264583"
       id="path95-2"
       cx="98.770325"
       cy="179.89182"
       r="1.3518775" />
    <circle
       style="display:inline;fill:#ffffff;fill-opacity:0.25126302;fill-rule:evenodd;stroke-width:0.264583"
       id="path95-8"
       cx="98.7939"
       cy="185.01115"
       r="1.3518775" />
    <circle
       style="display:inline;fill:#ffffff;fill-opacity:0.25126302;fill-rule:evenodd;stroke-width:0.264583"
       id="path95-22"
       cx="118.55938"
       cy="186.11353"
       r="1.3518775" />
    <circle
       style="display:inline;fill:#ffffff;fill-opacity:0.25126302;fill-rule:evenodd;stroke-width:0.264583"
       id="path95-25"
       cx="119.09399"
       cy="180.6286"
       r="1.3518775" />
    <circle
       style="display:inline;fill:#ffffff;fill-opacity:0.25126302;fill-rule:evenodd;stroke-width:0.264583"
       id="path95-1"
       cx="119.59036"
       cy="174.7316"
       r="1.3518775" />
    <path
       sodipodi:nodetypes="cc"
       inkscape:connector-curvature="0"
       id="path959"
       d="m 45.562421,162.36357 c 6.497601,10.84446 -3.723487,17.67786 -11.892157,25.00367"
       style="fill:none;stroke:#000000;stroke-width:0.264583px;stroke-linecap:butt;stroke-linejoin:miter;stroke-opacity:0.30309895" />
    <path
       style="display:inline;fill:none;stroke:#000000;stroke-width:0.264583px;stroke-linecap:butt;stroke-linejoin:miter;stroke-opacity:0.303099"
       d="m 163.81811,161.82252 c -6.49761,10.84446 3.72348,17.67786 11.89215,25.00367"
       id="path959-8"
       inkscape:connector-curvature="0"
       sodipodi:nodetypes="cc" />
  </g>
</svg>
