<?xml version="1.0" encoding="UTF-8" standalone="no"?>
<svg
   xmlns:dc="http://purl.org/dc/elements/1.1/"
   xmlns:cc="http://creativecommons.org/ns#"
   xmlns:rdf="http://www.w3.org/1999/02/22-rdf-syntax-ns#"
   xmlns:svg="http://www.w3.org/2000/svg"
   xmlns="http://www.w3.org/2000/svg"
   xmlns:sodipodi="http://sodipodi.sourceforge.net/DTD/sodipodi-0.dtd"
   xmlns:inkscape="http://www.inkscape.org/namespaces/inkscape"
   width="210mm"
   height="210mm"
   viewBox="0 0 210 210"
   version="1.1"
   id="svg707"
   inkscape:version="0.92+devel (cebbbba6da, 2018-12-20)"
   sodipodi:docname="1.svg">
  <style
     id="style4912">
  .skin_color { fill: #b3b3b3 !important; }
  .skin_color_outline { stroke: black !important; }
     .hair_color {
         fill: blue !important;
     }
     .hair_color_outline {
         stroke: black !important;
     }
  </style>
  <defs
     id="defs701" />
  <sodipodi:namedview
     id="base"
     pagecolor="#ffffff"
     bordercolor="#666666"
     borderopacity="1.0"
     inkscape:pageopacity="0.0"
     inkscape:pageshadow="2"
     inkscape:zoom="2.131692"
     inkscape:cx="179.30804"
     inkscape:cy="392.84124"
     inkscape:document-units="mm"
     inkscape:current-layer="contents"
     inkscape:document-rotation="0"
     showgrid="false"
     inkscape:window-width="1366"
     inkscape:window-height="738"
     inkscape:window-x="0"
     inkscape:window-y="0"
     inkscape:window-maximized="1" />
  <metadata
     id="metadata704">
    <rdf:RDF>
      <cc:Work
         rdf:about="">
        <dc:format>image/svg+xml</dc:format>
        <dc:type
           rdf:resource="http://purl.org/dc/dcmitype/StillImage" />
        <dc:title />
      </cc:Work>
    </rdf:RDF>
  </metadata>
  <g
     inkscape:groupmode="layer"
     id="layer7"
     inkscape:label="hints"
     style="display:inline"
     sodipodi:insensitive="true">
    <ellipse
       style="fill:#e6e6e6;stroke-width:0.264583"
       id="path10811"
       cx="106.90763"
       cy="105.91379"
       rx="64.360046"
       ry="79.833107" />
    <ellipse
       style="fill:#808080;stroke-width:0.264583"
       id="path10813"
       cx="70.529694"
       cy="96.871117"
       rx="12.115626"
       ry="7.4878688" />
    <ellipse
       style="display:inline;fill:#808080;stroke-width:0.264583"
       id="path10813-1"
       cx="145.746"
       cy="95.969009"
       rx="12.115626"
       ry="7.4878693" />
    <path
       d="m 41.754808,131.42679 0.0019,-53.476629 c 43.498251,-3.944174 86.891492,-4.218353 130.156202,-10e-4 l 0.002,53.478799 c -44.81254,8.09409 -87.940519,6.62494 -130.160102,-0.001 z"
       id="path1121"
       inkscape:connector-curvature="0"
       class="skin_color skin_color_outline"
       sodipodi:nodetypes="ccccc"
       style="display:inline" />
    <path
       style="display:inline;stroke:none;stroke-width:0.264583px;stroke-linecap:butt;stroke-linejoin:miter;stroke-opacity:1"
       d="m 42.260714,132.46619 0.0062,-1.85286 c 36.57306,0.99694 82.107126,6.90198 129.123486,-0.66521 l 0.0577,2.75134 c -68.98276,15.21243 -103.376263,6.23748 -129.187417,-0.23327 z"
       id="path4640-0"
       inkscape:connector-curvature="0"
       class="skin_color"
       sodipodi:nodetypes="ccccc" />
    <path
       sodipodi:nodetypes="ccccc"
       class="skin_color"
       inkscape:connector-curvature="0"
       id="path4640-0-9"
       d="m 42.267667,78.895241 -0.07387,-1.543579 C 77.280026,74.170218 118.06906,66.900913 171.45369,77.230186 l -0.0465,1.401718 C 102.94679,77.266321 61.764833,94.572183 42.267667,78.895241 Z"
       style="display:inline;stroke:none;stroke-width:0.264583px;stroke-linecap:butt;stroke-linejoin:miter;stroke-opacity:1" />
  </g>
  <g
     inkscape:label="guide"
     inkscape:groupmode="layer"
     id="guide"
     style="display:inline;opacity:0.509806"
     sodipodi:insensitive="true">
    <rect
       style="fill:#999999;fill-rule:evenodd;stroke-width:0.0704493"
       id="rect259"
       width="11.627994"
       height="53.480701"
       x="29.945307"
       y="77.947411" />
  </g>
  <g
     inkscape:groupmode="layer"
     id="contents"
     inkscape:label="contents"
     style="display:inline">
    <path
       style="stroke-width:0.264583px;stroke-linecap:butt;stroke-linejoin:miter;stroke-opacity:1"
       d="m 42.192507,131.732 c -3.344201,-2.09327 -4.279359,-1.29251 -6.469164,-2.9559 -2.023549,-1.19178 -1.900374,-4.32906 -3.535757,-5.90178 -1.415836,-1.23451 -0.847689,-1.84047 -2.646109,-1.98736 -1.801802,-1.70508 0.290788,-3.53765 0.778199,-5.36097 0.760149,-1.77395 0.837126,-2.65257 2.430718,-2.87669 0.02896,-1.60001 0.06383,-3.20164 -0.168762,-4.77998 -0.383211,-1.64537 0.80618,-2.66983 2.169059,-3.35393 0.688543,-1.9971 -1.638047,-3.33463 -1.616559,-5.37283 -0.380803,-1.63595 0.55085,-2.702625 0.682639,-4.391605 -0.161238,-1.26863 0.969377,-2.241717 1.607628,-3.272377 0.347198,-1.75527 1.732803,-2.905135 1.922106,-4.679515 1.379257,-4.85346 2.837121,-4.378506 4.797445,-9.049673 z"
       id="path2787"
       inkscape:connector-curvature="0"
       sodipodi:nodetypes="cccccccccccccc"
       class="hair_color hair_color_outline" />
  </g>
</svg>
