<?xml version="1.0" encoding="UTF-8" standalone="no"?>
<svg
   xmlns:dc="http://purl.org/dc/elements/1.1/"
   xmlns:cc="http://creativecommons.org/ns#"
   xmlns:rdf="http://www.w3.org/1999/02/22-rdf-syntax-ns#"
   xmlns:svg="http://www.w3.org/2000/svg"
   xmlns="http://www.w3.org/2000/svg"
   xmlns:sodipodi="http://sodipodi.sourceforge.net/DTD/sodipodi-0.dtd"
   xmlns:inkscape="http://www.inkscape.org/namespaces/inkscape"
   width="210mm"
   height="210mm"
   viewBox="0 0 210 210"
   version="1.1"
   id="svg361"
   inkscape:version="0.92+devel (cebbbba6da, 2018-12-20)"
   sodipodi:docname="1.svg"
   enable-background="new">
  <defs
     id="defs1085" />
  <sodipodi:namedview
     id="base"
     pagecolor="#ffffff"
     bordercolor="#666666"
     borderopacity="1.0"
     inkscape:pageopacity="0.0"
     inkscape:pageshadow="2"
     inkscape:zoom="3.4018682"
     inkscape:cx="281.17614"
     inkscape:cy="375.06565"
     inkscape:document-units="mm"
     inkscape:current-layer="contents"
     inkscape:document-rotation="0"
     showgrid="false"
     showborder="true"
     inkscape:window-width="1366"
     inkscape:window-height="738"
     inkscape:window-x="0"
     inkscape:window-y="0"
     inkscape:window-maximized="1" />
  <style
     id="style238">
  .skin_color { fill: #b3b3b3; }
  .eye_color { fill: green; }
  .skin_color_outline { stroke: black; }
  </style>
  <metadata
     id="metadata358">
    <rdf:RDF>
      <cc:Work
         rdf:about="">
        <dc:format>image/svg+xml</dc:format>
        <dc:type
           rdf:resource="http://purl.org/dc/dcmitype/StillImage" />
        <dc:title />
      </cc:Work>
    </rdf:RDF>
  </metadata>
  <g
     inkscape:groupmode="layer"
     id="layer3"
     inkscape:label="hyper_guide"
     style="display:inline;opacity:0.306194"
     sodipodi:insensitive="true">
    <ellipse
       style="fill:#483737;stroke-width:0.116964"
       id="path367"
       cx="108.16001"
       cy="114.70388"
       rx="69.84034"
       ry="86.763084" />
  </g>
  <g
     inkscape:label="guide"
     inkscape:groupmode="layer"
     id="guide"
     style="display:inline"
     sodipodi:insensitive="true">
    <rect
       style="vector-effect:none;fill:#000020;fill-opacity:0.223529;stroke-width:0.264583;stop-color:#000000"
       id="rect739"
       width="40.60125"
       height="40.60125"
       x="54.648674"
       y="75.314964" />
  </g>
  <g
     inkscape:groupmode="layer"
     id="layer6"
     inkscape:label="hyper_guide2"
     style="display:inline;filter:url(#filter1893)"
     sodipodi:insensitive="true">
    <g
       style="opacity:1;stop-opacity:1"
       id="g1920"
       transform="translate(63.265862,0.03383636)">
      <circle
         r="10.744298"
         cy="95.125587"
         cx="75.150475"
         id="path1857"
         style="fill:#80e5ff;fill-opacity:1;stroke-width:0.330185" />
      <circle
         r="5.0644708"
         cy="95.125587"
         cx="75.150475"
         id="path1859"
         style="fill:#000000;fill-opacity:1;stroke-width:0.264583" />
    </g>
  </g>
  <g
     inkscape:groupmode="layer"
     id="contents"
     inkscape:label="contents"
     style="display:inline">
    <path
       inkscape:connector-curvature="0"
       id="path789-2"
       d="m 75.026427,91.656937 c -4.241673,-0.0329 -8.613902,1.211051 -12.04474,3.487642 -1.859283,1.233757 -0.423683,2.063303 -2.257227,4.025077 12.808096,11.633204 17.649896,4.974234 25.988595,1.200964 1.069567,0.45283 1.415674,-0.19429 1.169953,-1.146703 -0.823696,-1.295868 -0.573334,-2.39894 -1.595252,-3.393591 -2.908578,-2.83097 -7.019656,-4.140488 -11.261329,-4.173389 z"
       style="display:inline;opacity:1;fill:#ffffff;stroke-width:0.780759">
      <title
         id="title2239">guide_left</title>
    </path>
    <path
       style="display:inline;stroke-width:0.264583"
       class="eye_color"
       inkscape:connector-curvature="0"
       id="path1857-6"
       d="m 75.026427,91.656937 c -1.718892,-0.01333 -3.458083,0.186404 -5.148521,0.576194 a 8.3887024,8.3887024 0 0 0 -3.538287,6.831107 8.3887024,8.3887024 0 0 0 2.027267,5.453932 c 5.705856,2.56989 9.587899,0.55164 13.923182,-1.8464 a 8.3887024,8.3887024 0 0 0 0.826823,-3.607532 8.3887024,8.3887024 0 0 0 -3.552238,-6.847128 c -1.460804,-0.363844 -2.99059,-0.548169 -4.538226,-0.560173 z" />
    <circle
       style="opacity:1;fill:#000001;fill-opacity:1;stroke-width:0.206575;stop-opacity:1"
       id="path1859-0"
       cx="74.728096"
       cy="99.064491"
       r="3.954129" />
    <path
       sodipodi:nodetypes="ccccsscc"
       style="fill:#000000;fill-opacity:0.168046;stroke-width:0.231992"
       d="M 92.431322,94.634745 C 92.688508,90.501924 93.989699,75.859126 74.989954,77.359708 57.103378,75.133882 58.808627,85.764735 59.13073,89.3847 c -0.05492,0.688261 1.881376,9.839389 2.019389,10.232901 0.494998,-0.825184 -0.298862,-1.963645 0.481554,-2.690272 5.897935,-5.491427 20.074488,-7.485513 24.926134,-0.453354 0.581418,0.84273 1.028917,1.81509 1.312199,2.926596 0.3819,1.042659 5.025574,-2.102098 4.561316,-4.765826 z"
       id="path1087-3"
       inkscape:connector-curvature="0" />
    <path
       sodipodi:nodetypes="cssc"
       inkscape:connector-curvature="0"
       id="path1650"
       d="m 60.922766,99.018265 c 0.348974,-1.473011 0.332173,-2.28869 1.306765,-3.062641 5.74305,-4.560717 16.690105,-7.109072 24.283002,0.07167 0.746135,0.705635 0.568004,2.092157 1.30356,3.01555"
       class="skin_color_outline"
       style="fill:none;stroke-width:0.753432;stroke-linecap:round;stroke-linejoin:miter;stroke-miterlimit:4;stroke-dasharray:none;stroke-opacity:1" />
    <rect
       inkscape:label="#rect1294"
       y="75.097153"
       x="53.771442"
       height="6.6091433"
       width="42.397831"
       id="guide_eye_brow"
       style="vector-effect:none;fill:#cccccc;fill-opacity:0.496764;stroke-width:0.264583;stop-color:#000000" />
    <g
       inkscape:label="option_eye_bag"
       id="option_eye_bag"
       inkscape:groupmode="layer">
      <path
         sodipodi:nodetypes="cccccc"
         inkscape:connector-curvature="0"
         id="path717"
         d="m 61.105306,99.30899 c 0.606461,10.6912 2.563261,20.17399 24.455773,11.81646 4.217843,-1.7211 5.180432,-8.81131 5.351571,-12.985971 -1.033038,0.624408 -2.219359,1.628559 -2.899138,1.377807 -0.197611,1.217154 -0.863365,1.065094 -1.506974,0.977804 -14.587268,9.25419 -19.953182,3.96929 -25.401232,-1.1861 z"
         style="font-variation-settings:normal;opacity:1;vector-effect:none;fill:#000000;fill-opacity:0.168046;stroke:none;stroke-width:0.231992;stroke-linecap:butt;stroke-linejoin:miter;stroke-miterlimit:4;stroke-dasharray:none;stroke-dashoffset:0;stroke-opacity:1;stop-color:#000000;stop-opacity:1" />
    </g>
  </g>
</svg>
