<?xml version="1.0" encoding="UTF-8" standalone="no"?>
<svg
   xmlns:dc="http://purl.org/dc/elements/1.1/"
   xmlns:cc="http://creativecommons.org/ns#"
   xmlns:rdf="http://www.w3.org/1999/02/22-rdf-syntax-ns#"
   xmlns:svg="http://www.w3.org/2000/svg"
   xmlns="http://www.w3.org/2000/svg"
   xmlns:sodipodi="http://sodipodi.sourceforge.net/DTD/sodipodi-0.dtd"
   xmlns:inkscape="http://www.inkscape.org/namespaces/inkscape"
   width="210mm"
   height="210mm"
   viewBox="0 0 210 210"
   version="1.1"
   id="svg361"
   inkscape:version="0.92+devel (cebbbba6da, 2018-12-20)"
   sodipodi:docname="3.svg"
   enable-background="new">
  <defs
     id="defs1085" />
  <sodipodi:namedview
     id="base"
     pagecolor="#ffffff"
     bordercolor="#666666"
     borderopacity="1.0"
     inkscape:pageopacity="0.0"
     inkscape:pageshadow="2"
     inkscape:zoom="3.4018682"
     inkscape:cx="267.10824"
     inkscape:cy="364.14728"
     inkscape:document-units="mm"
     inkscape:current-layer="contents"
     inkscape:document-rotation="0"
     showgrid="false"
     showborder="true"
     inkscape:window-width="1366"
     inkscape:window-height="738"
     inkscape:window-x="0"
     inkscape:window-y="0"
     inkscape:window-maximized="1" />
  <style
     id="style238">
  .skin_color { fill: #b3b3b3 !important; }
  .eye_color { fill: green !important; }
  .skin_color_outline { stroke: black !important; }
  </style>
  <metadata
     id="metadata358">
    <rdf:RDF>
      <cc:Work
         rdf:about="">
        <dc:format>image/svg+xml</dc:format>
        <dc:type
           rdf:resource="http://purl.org/dc/dcmitype/StillImage" />
        <dc:title />
      </cc:Work>
    </rdf:RDF>
  </metadata>
  <g
     inkscape:groupmode="layer"
     id="layer3"
     inkscape:label="hyper_guide"
     style="display:inline;opacity:0.306194"
     sodipodi:insensitive="true">
    <ellipse
       style="fill:#483737;stroke-width:0.116964"
       id="path367"
       cx="108.16001"
       cy="114.70388"
       rx="69.84034"
       ry="86.763084" />
  </g>
  <g
     inkscape:label="guide"
     inkscape:groupmode="layer"
     id="guide"
     style="display:inline"
     sodipodi:insensitive="true">
    <rect
       style="vector-effect:none;fill:#000020;fill-opacity:0.223529;stroke-width:0.264583;stop-color:#000000"
       id="rect739"
       width="40.60125"
       height="40.60125"
       x="54.648674"
       y="75.314964" />
  </g>
  <g
     inkscape:groupmode="layer"
     id="layer6"
     inkscape:label="hyper_guide2"
     style="display:inline;filter:url(#filter1893)"
     sodipodi:insensitive="true">
    <g
       style="opacity:1;stop-opacity:1"
       id="g1920"
       transform="translate(63.265862,0.03383636)">
      <circle
         r="10.744298"
         cy="95.125587"
         cx="75.150475"
         id="path1857"
         style="fill:#80e5ff;fill-opacity:1;stroke-width:0.330185" />
      <circle
         r="5.0644708"
         cy="95.125587"
         cx="75.150475"
         id="path1859"
         style="fill:#000000;fill-opacity:1;stroke-width:0.264583" />
    </g>
  </g>
  <g
     inkscape:groupmode="layer"
     id="contents"
     inkscape:label="contents"
     style="display:inline">
    <path
       style="display:inline;opacity:1;fill:#ffffff;stroke-width:0.780759"
       d="m 74.756161,91.027 c -3.232021,0.08147 -6.404449,1.75932 -9.363771,4.672068 -1.590291,1.565264 -0.604547,1.844193 -2.438093,3.805967 7.703772,12.706955 21.653368,4.342815 21.897372,0.963765 1.069567,0.45283 1.416193,-0.19481 1.170471,-1.147216 C 85.198445,98.025715 85.44246,96.981207 84.476498,95.932126 81.279646,92.460197 77.988179,90.945529 74.756161,91.027 Z"
       id="path789-2"
       inkscape:connector-curvature="0">
      <title
         id="title2900">guide_left</title>
    </path>
    <circle
       style="opacity:1;fill-opacity:1;stroke-width:0.201292;stop-opacity:1"
       class="eye_color"
       id="path1857-6"
       cx="74.728096"
       cy="99.064491"
       r="6.5500722" />
    <circle
       style="opacity:1;fill:#000001;fill-opacity:1;stroke-width:0.123967;stop-opacity:1"
       id="path1859-0"
       cx="74.728096"
       cy="99.064491"
       r="2.372895" />
    <path
       sodipodi:nodetypes="ccccsscc"
       style="fill:#000000;fill-opacity:0.168046;stroke-width:0.231992"
       d="m 92.431322,94.634745 c 0.257186,-4.132821 1.79104,-14.697602 -17.208705,-13.19702 -17.886576,-2.225826 -16.41399,4.32701 -16.091887,7.946975 -0.05492,0.688261 4.11125,10.174489 4.249263,10.568001 0.494998,-0.825184 -0.161658,-1.839794 0.481554,-2.690272 5.840657,-7.722722 15.439399,-9.76525 20.834979,-0.690472 0.523241,0.880034 1.028917,1.81509 1.312199,2.926596 0.3819,1.042657 6.886855,-2.20008 6.422597,-4.863808 z"
       id="path1087-3"
       inkscape:connector-curvature="0" />
    <path
       sodipodi:nodetypes="cssc"
       inkscape:connector-curvature="0"
       id="path1650"
       d="m 63.129113,99.604197 c 0.348974,-1.473011 0.670259,-1.993207 1.306765,-3.062641 2.831879,-4.758019 12.532516,-9.51998 20.338242,-0.63184 0.67766,0.771631 0.568004,2.092157 1.30356,3.01555"
       class="skin_color_outline"
       style="fill:none;stroke-width:0.753432;stroke-linecap:round;stroke-linejoin:miter;stroke-miterlimit:4;stroke-dasharray:none;stroke-opacity:1" />
    <rect
       inkscape:label="#rect1294"
       y="78.277657"
       x="53.967503"
       height="6.6091433"
       width="42.397831"
       id="guide_eye_brow"
       style="vector-effect:none;fill:#cccccc;fill-opacity:0.496764;stroke-width:0.264583;stop-color:#000000" />
    <g
       inkscape:label="optional_eye_bag"
       id="optional_eye_bag"
       inkscape:groupmode="layer">
      <path
         sodipodi:nodetypes="cccccc"
         inkscape:connector-curvature="0"
         id="path717"
         d="m 63.172014,99.664552 c 0.606461,10.691198 0.496553,19.818428 22.389065,11.460898 4.217843,-1.7211 5.180432,-9.18169 5.351571,-13.356349 -1.552714,0.775281 -4.770182,2.216801 -4.750569,1.763001 -0.197611,1.217158 -0.561969,1.213248 -1.205578,1.125958 -6.4371,9.62991 -20.341533,5.84322 -21.784489,-0.993508 z"
         style="font-variation-settings:normal;opacity:1;vector-effect:none;fill:#000000;fill-opacity:0.168046;stroke:none;stroke-width:0.231992;stroke-linecap:butt;stroke-linejoin:miter;stroke-miterlimit:4;stroke-dasharray:none;stroke-dashoffset:0;stroke-opacity:1;stop-color:#000000;stop-opacity:1" />
    </g>
  </g>
</svg>
