<?xml version="1.0" encoding="UTF-8" standalone="no"?>
<svg
   xmlns:dc="http://purl.org/dc/elements/1.1/"
   xmlns:cc="http://creativecommons.org/ns#"
   xmlns:rdf="http://www.w3.org/1999/02/22-rdf-syntax-ns#"
   xmlns:svg="http://www.w3.org/2000/svg"
   xmlns="http://www.w3.org/2000/svg"
   xmlns:sodipodi="http://sodipodi.sourceforge.net/DTD/sodipodi-0.dtd"
   xmlns:inkscape="http://www.inkscape.org/namespaces/inkscape"
   width="210mm"
   height="210mm"
   viewBox="0 0 210 210"
   version="1.1"
   id="svg361"
   inkscape:version="0.92+devel (cebbbba6da, 2018-12-20)"
   sodipodi:docname="4.svg"
   enable-background="new">
  <defs
     id="defs1085" />
  <sodipodi:namedview
     id="base"
     pagecolor="#ffffff"
     bordercolor="#666666"
     borderopacity="1.0"
     inkscape:pageopacity="0.0"
     inkscape:pageshadow="2"
     inkscape:zoom="3.4018682"
     inkscape:cx="267.10824"
     inkscape:cy="364.14728"
     inkscape:document-units="mm"
     inkscape:current-layer="contents"
     inkscape:document-rotation="0"
     showgrid="false"
     showborder="true"
     inkscape:window-width="1366"
     inkscape:window-height="738"
     inkscape:window-x="0"
     inkscape:window-y="0"
     inkscape:window-maximized="1" />
  <style
     id="style238">
  .skin_color { fill: #b3b3b3 !important; }
  .eye_color { fill: green !important; }
  .skin_color_outline { stroke: black !important; }
  </style>
  <metadata
     id="metadata358">
    <rdf:RDF>
      <cc:Work
         rdf:about="">
        <dc:format>image/svg+xml</dc:format>
        <dc:type
           rdf:resource="http://purl.org/dc/dcmitype/StillImage" />
        <dc:title></dc:title>
      </cc:Work>
    </rdf:RDF>
  </metadata>
  <g
     inkscape:groupmode="layer"
     id="layer3"
     inkscape:label="hyper_guide"
     style="display:inline;opacity:0.306194"
     sodipodi:insensitive="true">
    <ellipse
       style="fill:#483737;stroke-width:0.116964"
       id="path367"
       cx="108.16001"
       cy="114.70388"
       rx="69.84034"
       ry="86.763084" />
  </g>
  <g
     inkscape:label="guide"
     inkscape:groupmode="layer"
     id="guide"
     style="display:inline"
     sodipodi:insensitive="true">
    <rect
       style="vector-effect:none;fill:#000020;fill-opacity:0.223529;stroke-width:0.264583;stop-color:#000000"
       id="rect739"
       width="40.60125"
       height="40.60125"
       x="54.648674"
       y="75.314964" />
  </g>
  <g
     inkscape:groupmode="layer"
     id="layer6"
     inkscape:label="hyper_guide2"
     style="display:inline;filter:url(#filter1893)"
     sodipodi:insensitive="true">
    <g
       style="opacity:1;stop-opacity:1"
       id="g1920"
       transform="translate(63.265862,0.03383636)">
      <circle
         r="10.744298"
         cy="95.125587"
         cx="75.150475"
         id="path1857"
         style="fill:#80e5ff;fill-opacity:1;stroke-width:0.330185" />
      <circle
         r="5.0644708"
         cy="95.125587"
         cx="75.150475"
         id="path1859"
         style="fill:#000000;fill-opacity:1;stroke-width:0.264583" />
    </g>
  </g>
  <g
     inkscape:groupmode="layer"
     id="contents"
     inkscape:label="contents"
     style="display:inline">
    <circle
       style="display:inline;opacity:1;fill:#ffffff;stroke-width:0.780759"
       id="path789-2"
       cx="75.173332"
       cy="99.064491"
       r="15.358538">
      <title
         id="title791-7">guide_left</title>
    </circle>
    <circle
       style="opacity:1;fill-opacity:1;stroke-width:0.257795;stop-opacity:1"
       class="eye_color"
       id="path1857-6"
       cx="74.728096"
       cy="99.064491"
       r="8.3887024" />
    <circle
       style="opacity:1;fill:#000001;fill-opacity:1;stroke-width:0.206575;stop-opacity:1"
       id="path1859-0"
       cx="74.728096"
       cy="99.064491"
       r="3.954129" />
    <path
       class="skin_color"
       style="fill-opacity:1;stroke-width:0.295751"
       d="m 74.743449,81.994518 c -9.417463,-7.6e-5 -17.051845,7.634309 -17.051775,17.051775 -7e-5,9.417467 7.634312,17.051847 17.051775,17.051777 9.417315,-1.5e-4 17.051447,-7.63447 17.051377,-17.051777 7e-5,-9.417309 -7.634062,-17.051628 -17.051377,-17.051775 z m 13.139753,17.2293 c 0.245721,0.952412 -0.100485,1.599612 -1.170054,1.146782 -8.338698,3.77327 -13.180504,10.43236 -25.988601,-1.200842 1.833546,-1.961774 0.346951,-2.633034 2.513524,-3.166928 8.210585,-2.023282 15.771455,-2.003181 23.049926,-0.172344 1.382978,0.347876 0.771509,2.097464 1.595205,3.393332 z"
       id="path1945"
       inkscape:connector-curvature="0"
       sodipodi:nodetypes="ccccccccssc" />
    <path
       sodipodi:nodetypes="ccccsscc"
       style="fill:#000000;fill-opacity:0.168046;stroke-width:0.231992"
       d="M 92.431322,94.634745 C 92.688508,90.501924 93.989699,75.859126 74.989954,77.359708 57.103378,75.133882 58.808627,85.764735 59.13073,89.3847 c -0.05492,0.688261 1.881376,9.839389 2.019389,10.232901 0.494998,-0.825184 -0.384484,-2.068168 0.481554,-2.690272 5.309574,-3.814043 18.931386,-4.226592 24.926134,-0.453354 0.866484,0.545386 1.028917,1.81509 1.312199,2.926596 0.3819,1.042659 5.025574,-2.102098 4.561316,-4.765826 z"
       id="path1087-3"
       inkscape:connector-curvature="0" />
    <path
       sodipodi:nodetypes="cssc"
       inkscape:connector-curvature="0"
       id="path1650"
       d="m 60.922766,99.018265 c 0.348974,-1.473011 1.69341,-2.937239 2.875259,-3.327192 6.668654,-2.200336 17.157138,-1.653726 22.714508,0.336221 0.966842,0.346201 0.568004,2.092157 1.30356,3.01555"
       class="skin_color_outline"
       style="fill:none;stroke-width:0.753432;stroke-linecap:round;stroke-linejoin:miter;stroke-miterlimit:4;stroke-dasharray:none;stroke-opacity:1" />
    <rect
       inkscape:label="#rect1294"
       y="75.097153"
       x="53.771442"
       height="6.6091433"
       width="42.397831"
       id="guide_eye_brow"
       style="vector-effect:none;fill:#cccccc;fill-opacity:0.496764;stroke-width:0.264583;stop-color:#000000" />
  </g>
</svg>
