<?xml version="1.0" encoding="UTF-8" standalone="no"?>

<svg
xmlns:svg="http://www.w3.org/2000/svg"
xmlns="http://www.w3.org/2000/svg"
width="1024px"
height="1024px"
viewBox="0 0 210 210"
version="1.1"
>

        <svg x='0px' y='0px' width='210px' height='210px' viewBox='0 0 210 210'>
<style>
     .skin_color_9497702644785984601 {
         fill: #c6802c !important;
     }
     .hair_color_9497702644785984601 {
         fill: #c7920e !important;
     }
     .eye_color_9497702644785984601 {
         fill: #4ed33d !important;
     }
     .eye_white_color_9497702644785984601 {
         fill: white !important;
     }
     .eye_pupil_color_9497702644785984601 {
         fill: black !important;
     }
</style>
<g style='transform:matrix3d(0.4935839939521989, 0.0000000000000005606873486025032, 0, 0.000000000000000005840493214609408, 0.000000000000000934478914337505, 1.0306282900190915, 0, 0.000000000000000008760739821914112, 0, 0, 1, 0, 55.92408737704957, 2.609397660228154, 0, 1)'><g xmlns="http://www.w3.org/2000/svg" xmlns:inkscape="http://www.inkscape.org/namespaces/inkscape" xmlns:dc="http://purl.org/dc/elements/1.1/" xmlns:cc="http://creativecommons.org/ns#" xmlns:rdf="http://www.w3.org/1999/02/22-rdf-syntax-ns#" xmlns:svg="http://www.w3.org/2000/svg" xmlns:sodipodi="http://sodipodi.sourceforge.net/DTD/sodipodi-0.dtd" inkscape:groupmode="layer" id="layer5" inkscape:label="1_left">
    <ellipse style="fill:#999999;stroke-width:0.0978865" class="skin_color_9497702644785984601" id="path385-1" cx="36.88612" cy="85.277008" rx="12.869177" ry="19.500143"/>
  </g>
</g><g style='transform:matrix3d(0.4935839939521909, -0.00000000000000186895782867499, 0, -0.000000000000000026282219465742047, -0.00000000000000373791565734998, 1.0306282900190782, 0, -0.000000000000000023361972858437378, 0, 0, 1, 0, 50.39135909117835, 3.588925822124163, 0, 1)'><g xmlns="http://www.w3.org/2000/svg" xmlns:inkscape="http://www.inkscape.org/namespaces/inkscape" xmlns:dc="http://purl.org/dc/elements/1.1/" xmlns:cc="http://creativecommons.org/ns#" xmlns:rdf="http://www.w3.org/1999/02/22-rdf-syntax-ns#" xmlns:svg="http://www.w3.org/2000/svg" xmlns:sodipodi="http://sodipodi.sourceforge.net/DTD/sodipodi-0.dtd" inkscape:groupmode="layer" id="layer4" inkscape:label="1_right">
    <ellipse style="fill:#999999;stroke-width:0.0978865" class="skin_color_9497702644785984601" id="path385" cx="179.09235" cy="84.58197" rx="12.869177" ry="19.500143"/>
  </g>
  </g><svg:path class="skin_color_9497702644785984601" style="fill-opacity:1;" d="M 86.825072,161.21486 L 86.825072,161.21486 L 77.341387,115.34138 L 74.19302,79.633632 L 97.680396,40.633781 L 120.54732,42.149048 L 138.94669,80.851685 L 135.98828,117.22118 L 125.64271,162.4496 L 112.05753,177.74516 L 99.262699,178.12399 z"/><g style='transform:matrix3d(0.14205475828868805, -0.0000000000000018809117879157085, 0, -0.000000000000000013714981786885374, -0.000000000000006018917721330267, 0.2963609503921612, 0, -0.00000000000000005094136092271711, 0, 0, 1, 0, 90.77392684741136, 119.02510093516628, 0, 1)'><g xmlns="http://www.w3.org/2000/svg" xmlns:inkscape="http://www.inkscape.org/namespaces/inkscape" xmlns:dc="http://purl.org/dc/elements/1.1/" xmlns:cc="http://creativecommons.org/ns#" xmlns:rdf="http://www.w3.org/1999/02/22-rdf-syntax-ns#" xmlns:svg="http://www.w3.org/2000/svg" xmlns:sodipodi="http://sodipodi.sourceforge.net/DTD/sodipodi-0.dtd" inkscape:groupmode="layer" id="layer2" inkscape:label="1">
    <path style="fill:none;stroke:#000000;stroke-width:5.465;stroke-linecap:butt;stroke-linejoin:miter;stroke-opacity:1;stroke-miterlimit:4;stroke-dasharray:none" d="M 33.574915,104.04512 183.08134,103.75711" id="path483" inkscape:connector-curvature="0"/>
  </g>
</g><g style='transform:matrix3d(0.18295886412910037, 0.00000000000000016684412037797433, 0, 0.0000000000000000013034696904529245, 0.0000000000000006673764815118973, 0.2321433171954262, 0, 0.000000000000000005213878761811698, 0, 0, 1, 0, 86.7743485557186, 95.45551135922429, 0, 1)'><g xmlns="http://www.w3.org/2000/svg" xmlns:inkscape="http://www.inkscape.org/namespaces/inkscape" xmlns:dc="http://purl.org/dc/elements/1.1/" xmlns:cc="http://creativecommons.org/ns#" xmlns:rdf="http://www.w3.org/1999/02/22-rdf-syntax-ns#" xmlns:svg="http://www.w3.org/2000/svg" xmlns:sodipodi="http://sodipodi.sourceforge.net/DTD/sodipodi-0.dtd" inkscape:groupmode="layer" id="layer6" inkscape:label="1">
    <rect style="stroke-width:0.264583;image-rendering:auto" id="rect1938" width="52.715637" height="119.62833" x="85.671432" y="37.074215" class="skin_color_9497702644785984601"/>
    <ellipse style="fill:#080000;fill-opacity:0.22706784;stroke-width:0.259321" id="path2104" cx="111.10764" cy="162.94789" rx="35.173035" ry="24.626974"/>
    <ellipse style="stroke-width:0.264583" id="path1940" cx="111.37804" cy="157.10849" rx="36.428715" ry="23.220579" class="skin_color_9497702644785984601"/>
    <rect style="fill:#ffffff;fill-opacity:0.21995942;fill-rule:evenodd;stroke-width:0.213858" id="rect1389" width="8.9892788" height="97.158081" x="117.35891" y="40.189598"/>
    <ellipse style="fill:#ffffff;fill-opacity:0.21995942;stroke-width:0.264583" id="path2106" cx="122.10594" cy="157.2718" rx="9.7968664" ry="5.1161618"/>
  </g>
  </g><ellipse
style="fill-opacity:1;"
class="eye_white_color_9497702644785984601"
cx="88.178993"
cy="93.759491"
rx="12.867449"
ry="12.867449" />
<ellipse
style="fill-opacity:1;"
class="eye_color_9497702644785984601"
cx="88.178993"
cy="93.759491"
rx="7.46312042"
ry="7.46312042" />
<ellipse
style="fill-opacity:1;"
class="eye_pupil_color_9497702644785984601"
cx="88.178993"
cy="93.759491"
rx="3.3455367400000005"
ry="3.3455367400000005" />
<ellipse
style="fill-opacity:1;"
class="eye_white_color_9497702644785984601"
cx="126.37109"
cy="94.063667"
rx="12.867449"
ry="12.867449" />
<ellipse
style="fill-opacity:1;"
class="eye_color_9497702644785984601"
cx="126.37109"
cy="94.063667"
rx="7.46312042"
ry="7.46312042" />
<ellipse
style="fill-opacity:1;"
class="eye_pupil_color_9497702644785984601"
cx="126.37109"
cy="94.063667"
rx="3.3455367400000005"
ry="3.3455367400000005" />
<g transform='translate(88.178993, 93.759491) scale(0.6541228611038119, 0.6541228611038119) translate(-74.723839, -95.66346)'><g xmlns="http://www.w3.org/2000/svg" xmlns:inkscape="http://www.inkscape.org/namespaces/inkscape" xmlns:dc="http://purl.org/dc/elements/1.1/" xmlns:cc="http://creativecommons.org/ns#" xmlns:rdf="http://www.w3.org/1999/02/22-rdf-syntax-ns#" xmlns:svg="http://www.w3.org/2000/svg" xmlns:sodipodi="http://sodipodi.sourceforge.net/DTD/sodipodi-0.dtd" inkscape:groupmode="layer" id="layer5" inkscape:label="1_left">
    <path class="skin_color_9497702644785984601" style="fill:#999999;fill-opacity:1;stroke-width:1.43168" d="m 280.33984,278.92969 c -45.58845,-3.7e-4 -82.54529,36.95647 -82.54492,82.54492 -3.7e-4,45.58845 36.95647,82.54529 82.54492,82.54492 45.58769,-7.1e-4 82.54334,-36.95723 82.54297,-82.54492 3.7e-4,-45.58769 -36.95528,-82.54421 -82.54297,-82.54492 z m 63.60743,83.40429 c -33.90937,33.6876 -65.80445,59.38098 -131.47071,-0.26171 47.38688,-50.70087 98.63531,-51.39617 131.47071,0.26171 z" transform="scale(0.26458333)" id="path1945" inkscape:connector-curvature="0" sodipodi:nodetypes="cccccccc"/>
    <path style="fill:#000000;fill-opacity:0.168046;stroke-width:0.264583" d="m 95.859317,93.681442 a 27.617801,31.995359 0 0 1 -21.90668,12.577528 27.617801,31.995359 0 0 1 -21.63847,-12.114508 21.917583,21.599312 0 0 0 -0.10697,2.10323 21.917583,21.599312 0 0 0 21.91753,21.599718 21.917583,21.599312 0 0 0 21.91752,-21.599718 21.917583,21.599312 0 0 0 -0.18293,-2.56625 z" id="path1087-3" inkscape:connector-curvature="0"/>
  </g>
</g><g transform='translate(126.37109, 94.063667) scale(0.6541228611038119, 0.6541228611038119) translate(-138.41634, -95.159424)'><g xmlns="http://www.w3.org/2000/svg" xmlns:inkscape="http://www.inkscape.org/namespaces/inkscape" xmlns:dc="http://purl.org/dc/elements/1.1/" xmlns:cc="http://creativecommons.org/ns#" xmlns:rdf="http://www.w3.org/1999/02/22-rdf-syntax-ns#" xmlns:svg="http://www.w3.org/2000/svg" xmlns:sodipodi="http://sodipodi.sourceforge.net/DTD/sodipodi-0.dtd" inkscape:groupmode="layer" id="layer4" inkscape:label="1_right">
    <path class="skin_color_9497702644785984601" style="fill:#999999;fill-opacity:1;stroke-width:0.378799" d="m 138.76401,73.372153 c 12.06195,-9e-5 21.84011,9.77807 21.84001,21.84001 1e-4,12.061947 -9.77806,21.840107 -21.84001,21.840007 -12.06174,-1.8e-4 -21.83959,-9.77826 -21.83949,-21.840007 -1e-4,-12.06174 9.77775,-21.83982 21.83949,-21.84001 z m -16.82946,22.06739 c 8.97185,8.913177 17.41076,15.711217 34.78496,-0.0693 -12.53778,-13.4146 -26.09726,-13.59857 -34.78496,0.0693 z" id="path1945-6" inkscape:connector-curvature="0" sodipodi:nodetypes="cccccccc"/>
    <path style="fill:#000000;fill-opacity:0.168046;stroke-width:0.999999" d="m 606.88281,352.14844 a 104.38224,120.92734 0 0 1 -82.79687,47.53711 104.38224,120.92734 0 0 1 -81.78321,-45.78711 82.838109,81.635195 0 0 0 -0.40429,7.94922 82.838109,81.635195 0 0 0 82.83789,81.63672 82.838109,81.635195 0 0 0 82.83789,-81.63672 82.838109,81.635195 0 0 0 -0.69141,-9.69922 z" transform="scale(0.26458333)" id="path1087" inkscape:connector-curvature="0"/>
  </g>
  </g><g style='transform:matrix3d(0.5080904776260664, -0.00000000000000003689335833440781, 0, 0.000000000000000001152917447950244, 0, 0.771638153024487, 0, 0, 0, 0, 1, 0, 52.20388502744767, 17.345657220633736, 0, 1)'><g xmlns="http://www.w3.org/2000/svg" xmlns:inkscape="http://www.inkscape.org/namespaces/inkscape" xmlns:dc="http://purl.org/dc/elements/1.1/" xmlns:cc="http://creativecommons.org/ns#" xmlns:rdf="http://www.w3.org/1999/02/22-rdf-syntax-ns#" xmlns:svg="http://www.w3.org/2000/svg" xmlns:sodipodi="http://sodipodi.sourceforge.net/DTD/sodipodi-0.dtd" inkscape:groupmode="layer" id="layer2" inkscape:label="1" style="display:inline">
    <path class="hair_color_9497702644785984601" style="fill:#808080;stroke-width:0.264583" d="M 42.672534,89.878785 C 81.377585,64.694682 133.36722,67.998303 170.02528,87.243326 158.07478,-8.9428211 42.720359,16.298746 42.672534,89.878785 Z" id="path10860" inkscape:connector-curvature="0" sodipodi:nodetypes="ccc"/>
  </g>
</g></svg></svg>
