<?xml version="1.0" encoding="UTF-8" standalone="no"?>
<svg
   xmlns:dc="http://purl.org/dc/elements/1.1/"
   xmlns:cc="http://creativecommons.org/ns#"
   xmlns:rdf="http://www.w3.org/1999/02/22-rdf-syntax-ns#"
   xmlns:svg="http://www.w3.org/2000/svg"
   xmlns="http://www.w3.org/2000/svg"
   xmlns:sodipodi="http://sodipodi.sourceforge.net/DTD/sodipodi-0.dtd"
   xmlns:inkscape="http://www.inkscape.org/namespaces/inkscape"
   enable-background="new"
   sodipodi:docname="eye_left.svg"
   inkscape:version="0.92+devel (cebbbba6da, 2018-12-20)"
   id="svg361"
   version="1.1"
   viewBox="0 0 210 210"
   height="210mm"
   width="210mm">
  <defs
     id="defs1085" />
  <sodipodi:namedview
     inkscape:window-maximized="1"
     inkscape:window-y="0"
     inkscape:window-x="0"
     inkscape:window-height="738"
     inkscape:window-width="1366"
     showborder="true"
     showgrid="false"
     inkscape:document-rotation="0"
     inkscape:current-layer="feature_1"
     inkscape:document-units="mm"
     inkscape:cy="345.96887"
     inkscape:cx="467.87346"
     inkscape:zoom="0.93599497"
     inkscape:pageshadow="2"
     inkscape:pageopacity="0.0"
     borderopacity="1.0"
     bordercolor="#666666"
     pagecolor="#ffffff"
     id="base" />
  <style>
  .skin_color { fill: #b3b3b3 !important; }
  .eye_color { fill: green !important; }
  .skin_color_outline { stroke: black !important; }
  </style>
  <metadata
     id="metadata358">
    <rdf:RDF>
      <cc:Work
         rdf:about="">
        <dc:format>image/svg+xml</dc:format>
        <dc:type
           rdf:resource="http://purl.org/dc/dcmitype/StillImage" />
        <dc:title />
      </cc:Work>
    </rdf:RDF>
  </metadata>
  <g
     sodipodi:insensitive="true"
     style="display:inline;opacity:0.306194"
     inkscape:label="hyper_guide"
     id="layer3"
     inkscape:groupmode="layer">
    <ellipse
       ry="86.763084"
       rx="69.84034"
       cy="114.70388"
       cx="108.16001"
       id="path367"
       style="fill:#483737;stroke-width:0.116964" />
  </g>
  <g
     sodipodi:insensitive="true"
     style="display:inline"
     id="guide"
     inkscape:groupmode="layer"
     inkscape:label="guide">
    <rect
       y="75.314964"
       x="54.648674"
       height="40.60125"
       width="40.60125"
       id="rect739"
       style="vector-effect:none;fill:#000020;fill-opacity:0.223529;stroke-width:0.264583;stop-color:#000000" />
  </g>
  <g
     sodipodi:insensitive="true"
     style="display:inline;filter:url(#filter1893)"
     inkscape:label="hyper_guide2"
     id="layer6"
     inkscape:groupmode="layer">
    <g
       transform="translate(63.265862,0.03383636)"
       id="g1920"
       style="opacity:1;stop-opacity:1">
      <circle
         style="fill:#80e5ff;fill-opacity:1;stroke-width:0.330185"
         id="path1857"
         cx="75.150475"
         cy="95.125587"
         r="10.744298" />
      <circle
         style="fill:#000000;fill-opacity:1;stroke-width:0.264583"
         id="path1859"
         cx="75.150475"
         cy="95.125587"
         r="5.0644708" />
    </g>
  </g>
  <g
     style="display:inline"
     inkscape:label="1"
     id="feature_1"
     inkscape:groupmode="layer">
    <circle
       r="19.671303"
       cy="95.66346"
       cx="75.294098"
       id="path789-2"
       style="display:inline;opacity:1;fill:#ffffff">
      <title
         id="title791-7">guide_left</title>
    </circle>
    <circle
       r="10.744298"
       cy="95.66346"
       cx="74.723839"
       id="path1857-6"
       class="eye_color"
       style="opacity:1;fill-opacity:1;stroke-width:0.330185;stop-opacity:1" />
    <circle
       r="5.0644708"
       cy="95.66346"
       cx="74.723839"
       id="path1859-0"
       style="opacity:1;fill:#000001;fill-opacity:1;stroke-width:0.264583;stop-opacity:1" />
    <path
       sodipodi:nodetypes="ccccccccssc"
       inkscape:connector-curvature="0"
       id="path1945"
       d="m 74.743505,73.800146 c -12.06194,-9.8e-5 -21.8401,9.778066 -21.84001,21.84001 -9e-5,12.061944 9.77807,21.840104 21.84001,21.840014 12.06175,-1.9e-4 21.83959,-9.77827 21.8395,-21.840014 9e-5,-12.061743 -9.77775,-21.839822 -21.8395,-21.84001 z m 16.82947,22.067385 c 0.314721,1.219861 -0.128701,2.04879 -1.498611,1.468806 -10.680252,4.832833 -16.881665,13.361833 -33.286349,-1.538046 2.348417,-2.512652 0.509833,-3.575363 2.891211,-5.155566 8.788479,-5.831741 22.399951,-6.373239 29.850602,0.878607 1.308879,1.273954 0.988153,2.686444 2.043147,4.346199 z"
       style="fill-opacity:1;stroke-width:0.378799"
       class="skin_color" />
    <path
       inkscape:connector-curvature="0"
       id="path1087-3"
       d="M 94.567354,88.446544 C 94.565915,84.389625 90.143585,76.184862 75.05923,73.79196 58.939792,76.03038 56.269514,83.071834 54.746646,86.003655 c -0.07034,0.698946 2.409677,9.992157 2.586444,10.391779 -0.559103,1.003171 -3.80627,-6.609353 17.416823,-10.83581 9.417677,1.449591 14.493524,2.703844 16.806161,10.61541 -0.0092,-0.858239 3.123941,-6.877415 3.01128,-7.72849 z"
       style="fill:#000000;fill-opacity:0.168046;stroke-width:0.264583"
       sodipodi:nodetypes="ccccccc" />
    <path
       style="fill:none;stroke-width:0.965;stroke-linecap:round;stroke-linejoin:miter;stroke-miterlimit:4;stroke-dasharray:none;stroke-opacity:1"
       class="skin_color_outline"
       d="m 57.041896,95.604257 c 0.446967,-1.88664 0.425449,-2.931367 1.673711,-3.922647 7.355732,-5.841393 21.376782,-9.10534 31.101807,0.0918 0.955655,0.903781 0.727503,2.679646 1.669608,3.862334"
       id="path1650"
       inkscape:connector-curvature="0"
       sodipodi:nodetypes="cssc" />
  </g>
</svg>
