<?xml version="1.0" encoding="UTF-8" standalone="no"?>
<svg
   xmlns:dc="http://purl.org/dc/elements/1.1/"
   xmlns:cc="http://creativecommons.org/ns#"
   xmlns:rdf="http://www.w3.org/1999/02/22-rdf-syntax-ns#"
   xmlns:svg="http://www.w3.org/2000/svg"
   xmlns="http://www.w3.org/2000/svg"
   xmlns:sodipodi="http://sodipodi.sourceforge.net/DTD/sodipodi-0.dtd"
   xmlns:inkscape="http://www.inkscape.org/namespaces/inkscape"
   width="210mm"
   height="210mm"
   viewBox="0 0 210 210"
   version="1.1"
   id="svg707"
   inkscape:version="0.92+devel (cebbbba6da, 2018-12-20)"
   sodipodi:docname="mandible.svg">
  <defs
     id="defs701" />
  <sodipodi:namedview
     id="base"
     pagecolor="#ffffff"
     bordercolor="#666666"
     borderopacity="1.0"
     inkscape:pageopacity="0.0"
     inkscape:pageshadow="2"
     inkscape:zoom="0.87903638"
     inkscape:cx="536.00628"
     inkscape:cy="535.53072"
     inkscape:document-units="mm"
     inkscape:current-layer="feature_1"
     inkscape:document-rotation="0"
     showgrid="false"
     inkscape:window-width="1366"
     inkscape:window-height="738"
     inkscape:window-x="0"
     inkscape:window-y="0"
     inkscape:window-maximized="1" />
  <metadata
     id="metadata704">
    <rdf:RDF>
      <cc:Work
         rdf:about="">
        <dc:format>image/svg+xml</dc:format>
        <dc:type
           rdf:resource="http://purl.org/dc/dcmitype/StillImage" />
        <dc:title />
      </cc:Work>
    </rdf:RDF>
  </metadata>
  <style
     id="style4623">
  .skin_color { fill: #b3b3b3 !important; }
  .skin_color_outline { stroke: black !important; }
  </style>
  <g
     inkscape:groupmode="layer"
     id="layer7"
     inkscape:label="hints"
     style="display:inline"
     sodipodi:insensitive="true">
    <path
       style="fill:#808000;stroke-width:0.264583"
       d="m 171.26768,105.91379 c 0,9.05481 -1.22422,17.84248 -3.47772,26.09084 -8.71944,31.91538 -28.8182,15.92511 -57.06344,15.92511 -28.202307,0 -56.065112,16.06269 -64.708041,-15.77963 -2.250276,-8.29048 -3.470893,-17.12826 -3.470894,-26.23632 -3e-6,-44.090608 28.814973,-79.833108 64.360045,-79.833109 35.54507,-3e-6 64.36005,35.742499 64.36005,79.833109"
       id="path10811"
       inkscape:connector-curvature="0"
       sodipodi:nodetypes="csssssc" />
    <ellipse
       style="stroke-width:0.264583"
       id="path10813"
       cx="70.529694"
       cy="96.871117"
       rx="12.115626"
       ry="7.4878688" />
    <ellipse
       style="display:inline;stroke-width:0.264583"
       id="path10813-1"
       cx="145.746"
       cy="95.969009"
       rx="12.115626"
       ry="7.4878693" />
  </g>
  <g
     inkscape:label="guide"
     inkscape:groupmode="layer"
     id="guide"
     style="display:inline;opacity:0.509806"
     sodipodi:insensitive="true">
    <rect
       style="fill-rule:evenodd;stroke-width:0.228161"
       id="rect259"
       width="121.96474"
       height="53.480701"
       x="45.756344"
       y="131.84291" />
  </g>
  <g
     inkscape:groupmode="layer"
     id="feature_1"
     inkscape:label="1"
     style="display:inline">
    <path
       d="m 45.756819,131.84054 c 5.132609,70.37631 116.180811,70.80135 121.963551,0.003 -40.74487,-8.56916 -81.450488,-7.25021 -121.963551,-0.003 z"
       id="path1095"
       inkscape:connector-curvature="0"
       sodipodi:nodetypes="ccc"
       class="skin_color skin_color_outline" />
    <path
       style="fill:none;stroke:none;stroke-width:0.264583px;stroke-linecap:butt;stroke-linejoin:miter;stroke-opacity:1"
       d="m 47.271691,135.06675 v -11.20249 l 119.073529,4.95788 -0.13345,9.91779 z"
       id="path4638"
       inkscape:connector-curvature="0" />
  </g>
  <g
     style="display:inline"
     inkscape:label="2"
     id="feature_2"
     inkscape:groupmode="layer">
    <path
       class="skin_color skin_color_outline"
       sodipodi:nodetypes="csscc"
       inkscape:connector-curvature="0"
       id="path238"
       d="m 45.75741,131.84166 c 1.818327,24.93219 21.915908,33.58952 35.919492,48.36344 11.723817,12.36875 29.893478,16.24413 46.196088,1.25717 15.937,-14.65085 37.67862,-23.06754 39.84725,-49.61805 -40.11963,-9.05996 -80.950208,-7.15685 -121.96283,-0.003 z" />
  </g>
  <g
     inkscape:groupmode="layer"
     id="feature_3"
     inkscape:label="3"
     style="display:inline;opacity:0.998">
    <path
       d="m 45.755291,131.84329 c -3.155275,37.30978 6.284332,57.24197 36.207715,51.52761 14.376849,11.06115 22.843474,16.03776 44.697134,-0.59848 16.64783,4.73433 41.76757,3.55561 41.05836,-50.92859 -40.11963,-9.05996 -80.950587,-7.15483 -121.963209,-5.4e-4 z"
       id="path243"
       inkscape:connector-curvature="0"
       sodipodi:nodetypes="ccccc"
       class="skin_color skin_color_outline" />
  </g>
</svg>
