<?xml version="1.0" encoding="UTF-8" standalone="no"?>
<svg
   xmlns:dc="http://purl.org/dc/elements/1.1/"
   xmlns:cc="http://creativecommons.org/ns#"
   xmlns:rdf="http://www.w3.org/1999/02/22-rdf-syntax-ns#"
   xmlns:svg="http://www.w3.org/2000/svg"
   xmlns="http://www.w3.org/2000/svg"
   xmlns:sodipodi="http://sodipodi.sourceforge.net/DTD/sodipodi-0.dtd"
   xmlns:inkscape="http://www.inkscape.org/namespaces/inkscape"
   width="210mm"
   height="210mm"
   viewBox="0 0 210 210"
   version="1.1"
   id="svg707"
   inkscape:version="0.92+devel (cebbbba6da, 2018-12-20)"
   sodipodi:docname="side_part_right.svg">
  <style
     id="style261">
     .hair_color {
         fill: blue !important;
     }
     .hair_color_outline {
         stroke: black !important;
     }
     </style>
  <defs
     id="defs701" />
  <sodipodi:namedview
     id="base"
     pagecolor="#ffffff"
     bordercolor="#666666"
     borderopacity="1.0"
     inkscape:pageopacity="0.0"
     inkscape:pageshadow="2"
     inkscape:zoom="1.6161447"
     inkscape:cx="396.18686"
     inkscape:cy="230.34452"
     inkscape:document-units="mm"
     inkscape:current-layer="contents"
     inkscape:document-rotation="0"
     showgrid="false"
     inkscape:window-width="1366"
     inkscape:window-height="738"
     inkscape:window-x="0"
     inkscape:window-y="0"
     inkscape:window-maximized="1" />
  <metadata
     id="metadata704">
    <rdf:RDF>
      <cc:Work
         rdf:about="">
        <dc:format>image/svg+xml</dc:format>
        <dc:type
           rdf:resource="http://purl.org/dc/dcmitype/StillImage" />
        <dc:title></dc:title>
      </cc:Work>
    </rdf:RDF>
  </metadata>
  <g
     inkscape:groupmode="layer"
     id="layer7"
     inkscape:label="hints"
     style="display:inline;opacity:0.996614"
     sodipodi:insensitive="true">
    <ellipse
       style="fill:#e6e6e6;stroke-width:0.264583"
       id="path10811"
       cx="106.90763"
       cy="105.91379"
       rx="64.360046"
       ry="79.833107" />
    <ellipse
       style="fill:#808080;stroke-width:0.264583"
       id="path10813"
       cx="70.529694"
       cy="96.871117"
       rx="12.115626"
       ry="7.4878688" />
    <ellipse
       style="display:inline;fill:#808080;stroke-width:0.264583"
       id="path10813-1"
       cx="145.746"
       cy="95.969009"
       rx="12.115626"
       ry="7.4878693" />
  </g>
  <g
     inkscape:label="guide"
     inkscape:groupmode="layer"
     id="guide"
     style="display:inline;opacity:0.509806"
     sodipodi:insensitive="true">
    <rect
       style="fill:#999999;fill-rule:evenodd;stroke-width:0.277397"
       id="rect259"
       width="133.21216"
       height="72.37822"
       x="39.008324"
       y="22.751354" />
  </g>
  <g
     style="display:inline"
     inkscape:label="contents"
     id="contents"
     inkscape:groupmode="layer">
    <path
       sodipodi:nodetypes="ccssc"
       inkscape:connector-curvature="0"
       id="path242"
       d="M 171.50895,94.027124 C 148.68386,2.6049634 55.533935,1.3197485 39.828365,93.215107 35.531585,78.306409 42.363215,49.073604 55.035775,36.573265 77.384195,14.52858 125.38884,18.78413 149.57975,35.667664 c 17.96872,12.540883 25.25,34.108367 21.9292,58.35946 z"
       style="stroke-width:0.965;stroke-miterlimit:4;stroke-dasharray:none"
       class="hair_color hair_color_outline" />
    <path
       sodipodi:nodetypes="cccccccccc"
       d="m 171.62723,95.109817 c 0.10482,-2.322446 1.08295,-5.837155 0.30363,-6.952539 -4.16652,-71.962275 -114.277275,-98.816468 -132.329255,0.563226 -0.39256,1.844487 0.0508,3.668451 0.0799,5.502583 4.28489,-1.952806 5.53853,-4.518726 6.27513,-8.224919 -0.16163,-11.172048 5.46005,-13.063463 5.49883,-13.07356 21.7328,-1.474179 49.703915,-5.588852 87.170315,-23.850851 4.28281,-0.480806 16.78719,27.413965 22.22727,39.025246 3.6969,5.434276 7.30714,8.276023 10.77413,7.010814 z"
       class="hair_color"
       id="path244"
       inkscape:connector-curvature="0" />
    <path
       style="stroke:none;stroke-width:0.264583px;stroke-linecap:butt;stroke-linejoin:miter;stroke-opacity:1"
       d="m 157.6384,59.295069 -4.74325,29.926212 c -5.66062,-13.406649 -0.22865,-28.05166 -14.1417,-40.63447 8.17261,-0.781097 13.92054,4.055871 18.88495,10.708258 z"
       id="path248"
       inkscape:connector-curvature="0"
       class="hair_color"
       sodipodi:nodetypes="cccc" />
    <path
       style="fill:#000000;fill-opacity:0.334599;stroke:none;stroke-width:0.264583px;stroke-linecap:butt;stroke-linejoin:miter;stroke-opacity:1"
       d="m 152.88415,88.57367 c -3.94027,-13.563961 -2.1346,-30.131051 -14.05366,-39.524871 -20.72304,10.105695 -54.277375,24.083514 -88.239825,23.346979 -4.08287,5.151033 -5.03971,9.589232 -4.95061,13.788919 -1.50398,6.48834 -3.86956,6.369754 -6.03637,7.775453 0.69636,-9.039368 3.03319,-17.230469 7.32397,-24.411207 13.09147,0.971208 37.4773,-6.339039 47.34183,-18.939789 1.35139,0.673397 -6.17465,13.468432 6.058835,7.680055 12.81222,-3.811228 25.87166,-8.096051 38.77352,-12.078995 5.50407,-1.913693 6.31208,1.874529 7.82957,4.801291 9.51384,14.722894 3.98582,25.046513 5.95274,37.562165 z"
       id="path1073"
       inkscape:connector-curvature="0"
       sodipodi:nodetypes="ccccccccccc" />
    <path
       style="font-variation-settings:normal;opacity:1;vector-effect:none;fill:#000000;fill-opacity:0.334599;stroke:none;stroke-width:0.264583px;stroke-linecap:butt;stroke-linejoin:miter;stroke-miterlimit:4;stroke-dasharray:none;stroke-dashoffset:0;stroke-opacity:1;stop-color:#000000;stop-opacity:1"
       d="m 171.14522,92.412398 c -1.06457,0.295752 -9.67697,-12.917123 -16.19968,-22.389999 l 0.17608,6.005864 c 6.98605,16.794974 11.96234,19.734802 16.50782,19.704688 l -0.56677,-2.623439 z"
       id="path1091"
       inkscape:connector-curvature="0"
       sodipodi:nodetypes="cccccc" />
  </g>
</svg>
